<?xml version="1.0" encoding="UTF-8" standalone="no"?>
<!-- Generator: Adobe Illustrator 14.0.0, SVG Export Plug-In . SVG Version: 6.00 Build 43363)  -->

<svg
   xmlns:dc="http://purl.org/dc/elements/1.1/"
   xmlns:cc="http://creativecommons.org/ns#"
   xmlns:rdf="http://www.w3.org/1999/02/22-rdf-syntax-ns#"
   xmlns:svg="http://www.w3.org/2000/svg"
   xmlns="http://www.w3.org/2000/svg"
   xmlns:sodipodi="http://sodipodi.sourceforge.net/DTD/sodipodi-0.dtd"
   xmlns:inkscape="http://www.inkscape.org/namespaces/inkscape"
   version="1.1"
   id="svg2"
   x="0px"
   y="0px"
   width="1400px"
   height="1900px"
   viewBox="0 0 1400 1900"
   enable-background="new 0 0 1400 1900"
   xml:space="preserve"
   inkscape:version="0.48.0 r9654"
   sodipodi:docname="chess.svg"><metadata
   id="metadata299"><rdf:RDF><cc:Work
       rdf:about=""><dc:format>image/svg+xml</dc:format><dc:type
         rdf:resource="http://purl.org/dc/dcmitype/StillImage" /></cc:Work></rdf:RDF></metadata><defs
   id="defs297" /><sodipodi:namedview
   pagecolor="#ffffff"
   bordercolor="#666666"
   borderopacity="1"
   objecttolerance="10"
   gridtolerance="10"
   guidetolerance="10"
   inkscape:pageopacity="0"
   inkscape:pageshadow="2"
   inkscape:window-width="1405"
   inkscape:window-height="879"
   id="namedview295"
   showgrid="false"
   inkscape:zoom="0.57894737"
   inkscape:cx="605.12754"
   inkscape:cy="558.76438"
   inkscape:window-x="31"
   inkscape:window-y="-4"
   inkscape:window-maximized="1"
   inkscape:current-layer="svg2" />
<g
   id="layer1">
	<path
   id="path1881"
   d="M97.877,1540.685c-3.4-3.4-3.4-1191.863,0-1195.263s1186.028-3.4,1189.429,0   c3.399,3.4,3.399,1191.863,0,1195.263C1283.905,1544.084,101.277,1544.084,97.877,1540.685z M392.634,1465.633   c0.336-43.764-0.188-67.998-1.526-70.498c-1.966-3.673-4.51-3.81-70.621-3.81c-50.749,0-69.189,0.606-70.917,2.333   c-1.725,1.726-2.333,19.895-2.333,69.688c0,37.045,0.594,67.948,1.32,68.675c0.726,0.726,33.326,1.09,72.443,0.81l71.123-0.51   L392.634,1465.633z M689.674,1462.31v-70.013h-72.93h-72.929l-0.511,70.522l-0.511,70.521l73.44-0.51l73.439-0.51V1462.31z    M989.683,1465.633c0.335-43.764-0.189-67.998-1.527-70.498c-1.967-3.676-4.522-3.81-72.566-3.81   c-52.261,0-71.131,0.604-72.86,2.333c-1.726,1.726-2.334,19.895-2.334,69.688c0,37.045,0.594,67.948,1.319,68.674   s34.2,1.091,74.388,0.811l73.068-0.51L989.683,1465.633z M1281.399,1464.484c0.368-48.806-0.114-68.591-1.717-70.523   c-1.834-2.209-14.345-2.595-70.524-2.175l-68.295,0.511l-0.511,70.523l-0.51,70.522l70.522-0.511l70.522-0.511L1281.399,1464.484z    M242.215,1388.2c2.729-1.048,3.077-9.384,3.077-73.902v-72.722h-69.804c-61.858,0-69.938,0.351-70.984,3.077   c-0.649,1.691-1.181,33.897-1.181,71.567c0,50.679,0.607,69.099,2.333,70.826c1.723,1.723,19.499,2.333,67.909,2.333   C209.63,1389.38,240.523,1388.849,242.215,1388.2z M539.582,1386.949c3.037-2.227,3.272-8.408,2.803-73.416l-0.515-70.984   l-71.827-0.51c-56.17-0.399-72.166,0.024-73.386,1.944c-0.856,1.351-1.571,33.242-1.588,70.87   c-0.026,59.628,0.362,68.807,3.026,71.471c2.661,2.661,11.79,3.056,70.612,3.056   C519.688,1389.38,537.079,1388.783,539.582,1386.949z M835.373,1388.2c2.729-1.048,3.077-9.386,3.077-73.926v-72.745l-72.443,0.51   l-72.443,0.51l-0.511,71.827c-0.399,56.17,0.025,72.167,1.945,73.386C697.832,1389.561,830.746,1389.976,835.373,1388.2z    M1134.686,1386.949c3.037-2.227,3.272-8.408,2.802-73.416l-0.514-70.984l-72.8-0.51c-56.948-0.399-73.139,0.024-74.357,1.944   c-0.857,1.351-1.572,33.242-1.589,70.87c-0.025,59.628,0.363,68.807,3.026,71.471c2.663,2.662,11.879,3.056,71.585,3.056   C1114.598,1389.38,1132.18,1388.785,1134.686,1386.949z M391.914,1236.556c0.649-1.692,1.181-33.572,1.181-70.846   c0-59.016-0.395-68.164-3.056-70.825c-2.659-2.658-11.66-3.057-69.168-3.057c-41.854,0-67.492,0.739-69.873,2.014   c-3.613,1.934-3.762,4.804-3.762,72.605c0,38.825,0.583,71.175,1.296,71.888c0.713,0.714,33,1.297,71.749,1.297   C382.73,1239.632,390.868,1239.282,391.914,1236.556z M690.185,1166.832c0.399-56.17-0.024-72.166-1.944-73.385   c-2.834-1.799-137.693-2.214-142.321-0.438c-2.729,1.048-3.076,9.386-3.076,73.925v72.745l73.416-0.51l73.415-0.51   L690.185,1166.832z M988.962,1236.556c0.649-1.692,1.181-33.572,1.181-70.846c0-59.016-0.395-68.164-3.056-70.825   c-2.662-2.662-11.836-3.057-71.112-3.057c-43.194,0-69.431,0.736-71.818,2.014c-3.613,1.934-3.762,4.804-3.762,72.605   c0,38.825,0.584,71.175,1.297,71.888c0.713,0.714,33.875,1.297,73.693,1.297C979.607,1239.632,987.915,1239.284,988.962,1236.556z    M1280.68,1236.556c0.649-1.692,1.181-33.897,1.181-71.567c0-50.679-0.607-69.1-2.334-70.826   c-1.723-1.723-19.499-2.334-67.908-2.334c-36.066,0-66.959,0.531-68.651,1.181c-2.729,1.048-3.076,9.384-3.076,73.901v72.722   h69.805C1271.553,1239.632,1279.634,1239.282,1280.68,1236.556z M244.319,1015.982v-72.93l-67.837-0.512   c-48.447-0.365-68.598,0.119-70.498,1.696c-3.667,3.044-3.956,139.685-0.303,143.337c1.778,1.778,19.125,2.232,70.499,1.848   l68.14-0.511V1015.982z M540.685,1087.224c1.579-1.902,2.062-22.811,1.696-73.415l-0.511-70.756l-70.984-0.514   c-65.007-0.471-71.188-0.234-73.415,2.803c-3.138,4.279-3.525,134.975-0.418,140.78c1.933,3.611,4.793,3.762,71.719,3.762   C525.361,1089.884,538.893,1089.383,540.685,1087.224z M837.478,1015.982v-72.93h-71.957h-71.957l-0.511,70.977   c-0.281,39.036-0.086,72.084,0.435,73.439c0.744,1.938,16.165,2.354,72.468,1.953l71.522-0.511V1015.982z M1135.612,1087.55   c3.346-3.346,3.346-139.79,0-143.136c-1.73-1.73-20.78-2.334-73.675-2.334h-71.341l-1.173,4.376   c-2.098,7.827-1.377,135.621,0.787,139.666c1.934,3.613,4.803,3.762,72.541,3.762   C1115.013,1089.884,1133.883,1089.279,1135.612,1087.55z M390.039,939.024c2.663-2.664,3.052-11.843,3.025-71.471   c-0.016-37.628-0.73-69.52-1.588-70.87c-1.219-1.92-17.021-2.345-72.413-1.945l-70.855,0.511l-0.514,70.984   c-0.471,65.008-0.235,71.189,2.803,73.416c2.5,1.833,19.698,2.431,69.901,2.431C378.336,942.08,387.379,941.684,390.039,939.024z    M688.24,940.462c1.92-1.219,2.344-17.216,1.944-73.386l-0.511-71.827h-72.93h-72.929l-0.511,71.827   c-0.399,56.17,0.024,72.167,1.945,73.386C548.456,942.498,685.033,942.498,688.24,940.462z M987.087,939.024   c2.663-2.664,3.052-11.843,3.026-71.471c-0.017-37.628-0.731-69.52-1.589-70.87c-1.219-1.92-17.409-2.344-74.357-1.944l-72.8,0.51   l-0.514,70.984c-0.471,65.008-0.234,71.189,2.803,73.416c2.504,1.836,20.087,2.431,71.846,2.431   C975.208,942.08,984.424,941.687,987.087,939.024z M1279.526,939.746c2.706-2.706,3.387-138.854,0.715-143.063   c-1.218-1.919-16.633-2.345-70.469-1.945l-68.909,0.512l-0.511,71.827c-0.399,56.17,0.024,72.167,1.945,73.386   C1146.503,943.132,1276.821,942.452,1279.526,939.746z M244.829,718.917l-0.51-71.471l-68.909-0.512   c-53.835-0.399-69.25,0.025-70.469,1.944c-1.799,2.835-2.214,133.805-0.438,138.433c1.046,2.726,9.128,3.076,71.008,3.076h69.828   L244.829,718.917z M541.87,718.431v-70.984l-71.827-0.511c-56.17-0.399-72.166,0.024-73.386,1.944   c-1.805,2.843-2.21,133.813-0.429,138.455c1.064,2.771,8.82,3.046,73.416,2.59l72.226-0.51V718.431z M837.987,718.917l-0.51-71.471   h-71.957h-71.957l-0.512,69.029c-0.281,37.966-0.09,70.128,0.425,71.471c0.729,1.897,16.979,2.441,72.979,2.441h72.042   L837.987,718.917z M1136.974,718.431v-70.984l-72.8-0.511c-56.948-0.399-73.139,0.024-74.357,1.945   c-1.805,2.842-2.21,133.812-0.429,138.453c1.063,2.773,8.904,3.046,74.388,2.59l73.198-0.509V718.431z M390.761,640.25   c1.726-1.726,2.334-19.936,2.334-69.873c0-58.807-0.396-67.935-3.056-70.596c-2.659-2.658-11.66-3.056-69.168-3.056   c-41.854,0-67.492,0.738-69.873,2.013c-3.612,1.933-3.762,4.793-3.762,71.633c0,38.291,0.583,70.203,1.296,70.916   c0.713,0.713,32.481,1.297,70.595,1.297C370.435,642.584,389.033,641.978,390.761,640.25z M690.185,570.757   c0.399-55.392-0.024-71.194-1.944-72.413c-2.834-1.799-137.693-2.214-142.321-0.438c-2.727,1.046-3.076,9.183-3.076,71.632   c0,38.749,0.594,71.047,1.32,71.772c0.726,0.727,33.763,1.091,73.415,0.811l72.096-0.51L690.185,570.757z M988.962,639.508   c0.649-1.692,1.181-33.135,1.181-69.873c0-58.132-0.396-67.193-3.056-69.854c-2.662-2.662-11.836-3.056-71.112-3.056   c-43.194,0-69.431,0.735-71.818,2.013c-3.611,1.933-3.762,4.793-3.762,71.633c0,38.291,0.584,70.203,1.297,70.916   s33.875,1.297,73.693,1.297C979.607,642.584,987.915,642.236,988.962,639.508z M1280.68,639.508   c0.649-1.692,1.181-33.46,1.181-70.596c0-49.922-0.608-68.128-2.334-69.854c-1.723-1.723-19.499-2.333-67.908-2.333   c-36.066,0-66.959,0.531-68.651,1.181c-2.727,1.046-3.076,9.183-3.076,71.632c0,38.749,0.584,71.036,1.297,71.749   s32.125,1.297,69.804,1.297C1271.668,642.584,1279.634,642.232,1280.68,639.508z M244.83,423.285l0.51-70.522l-70.522,0.511   l-70.523,0.51l-0.512,67.837c-0.368,48.806,0.114,68.591,1.717,70.523c1.833,2.209,14.345,2.595,70.524,2.175l68.295-0.511   L244.83,423.285z M540.686,492.119c1.577-1.9,2.063-22.051,1.696-70.498l-0.512-67.837h-72.929h-72.93l-0.512,66.689   c-0.336,43.764,0.189,67.998,1.527,70.498c1.966,3.675,4.517,3.81,71.744,3.81C525.377,494.78,538.893,494.28,540.686,492.119z    M837.988,423.286l0.51-70.522l-72.467,0.51l-72.468,0.51l-0.512,68.056c-0.282,37.432-0.086,69.166,0.435,70.522   c0.745,1.942,16.127,2.357,72.469,1.956l71.522-0.51L837.988,423.286z M1135.789,492.119c1.577-1.9,2.062-22.051,1.696-70.498   l-0.512-67.837h-73.901H989.17l-0.512,66.689c-0.336,43.764,0.189,67.998,1.527,70.498c1.967,3.676,4.523,3.81,72.717,3.81   C1120.33,494.78,1133.994,494.281,1135.789,492.119z" />
	<text
   transform="matrix(1 0 0 1 290.1157 1635.1699)"
   font-family="'Verdana'"
   font-size="100"
   id="text5">g</text>


	<g
   id="g2570">
		<text
   transform="matrix(1 0 0 1 146.3516 1635.8242)"
   font-family="'Verdana'"
   font-size="100"
   id="text8">h</text>


		<text
   transform="matrix(1 0 0 1 444.4517 1635.8242)"
   font-family="'Verdana'"
   font-size="100"
   id="text10">f</text>


		<text
   transform="matrix(1 0 0 1 590.9751 1634.5547)"
   font-family="'Verdana'"
   font-size="100"
   id="text12">e</text>


		<text
   transform="matrix(1 0 0 1 738.8652 1634.3105)"
   font-family="'Verdana'"
   font-size="100"
   id="text14">d</text>


		<text
   transform="matrix(1 0 0 1 896.4971 1634.6035)"
   font-family="'Verdana'"
   font-size="100"
   id="text16">c</text>


		<text
   transform="matrix(1 0 0 1 1036.624 1634.3105)"
   font-family="'Verdana'"
   font-size="100"
   id="text18">b</text>


		<text
   transform="matrix(1 0 0 1 1182.6104 1634.3105)"
   font-family="'Verdana'"
   font-size="100"
   id="text20">a</text>


	</g>
	<g
   id="g2484">
		<text
   transform="matrix(1 0 0 1 21.6919 456.9258)"
   font-family="'Verdana'"
   font-size="100"
   id="text23">1</text>


		<text
   transform="matrix(1 0 0 1 21.0815 607.084)"
   font-family="'Verdana'"
   font-size="100"
   id="text25">2</text>


		<text
   transform="matrix(1 0 0 1 21.0571 757.168)"
   font-family="'Verdana'"
   font-size="100"
   id="text27">3</text>


		<text
   transform="matrix(1 0 0 1 20.6665 906.6426)"
   font-family="'Verdana'"
   font-size="100"
   id="text29">4</text>


		<text
   transform="matrix(1 0 0 1 22.229 1057.5576)"
   font-family="'Verdana'"
   font-size="100"
   id="text31">5</text>


		<text
   transform="matrix(1 0 0 1 21.3745 1207.7148)"
   font-family="'Verdana'"
   font-size="100"
   id="text33">6</text>


		<text
   transform="matrix(1 0 0 1 21.0083 1358.6309)"
   font-family="'Verdana'"
   font-size="100"
   id="text35">7</text>


		<text
   transform="matrix(1 0 0 1 20.2271 1508.1533)"
   font-family="'Verdana'"
   font-size="100"
   id="text37">8</text>


	</g>
	<g
   id="g2604"
   transform="translate(-14.705373,-1314.2225)">
		<text
   transform="matrix(1 0 0 1 146.3514 1635.8252)"
   font-family="'Verdana'"
   font-size="100"
   id="text40">h</text>


		<text
   transform="matrix(1 0 0 1 444.4515 1635.8252)"
   font-family="'Verdana'"
   font-size="100"
   id="text42">f</text>


		<text
   transform="matrix(1 0 0 1 590.9749 1634.5557)"
   font-family="'Verdana'"
   font-size="100"
   id="text44">e</text>


		<text
   transform="matrix(1 0 0 1 738.8655 1634.3115)"
   font-family="'Verdana'"
   font-size="100"
   id="text46">d</text>


		<text
   transform="matrix(1 0 0 1 896.4974 1634.6045)"
   font-family="'Verdana'"
   font-size="100"
   id="text48">c</text>


		<text
   transform="matrix(1 0 0 1 1036.6233 1634.3115)"
   font-family="'Verdana'"
   font-size="100"
   id="text50">b</text>


		<text
   transform="matrix(1 0 0 1 1182.6096 1634.3115)"
   font-family="'Verdana'"
   font-size="100"
   id="text52">a</text>


	</g>
	<text
   transform="matrix(1 0 0 1 290.7275 317.7003)"
   font-family="'Verdana'"
   font-size="100"
   id="text54">g</text>


	<g
   id="g2638"
   transform="translate(1290.8796,-6.8949197)">
		<text
   transform="matrix(1 0 0 1 21.6917 456.9253)"
   font-family="'Verdana'"
   font-size="100"
   id="text57">1</text>


		<text
   transform="matrix(1 0 0 1 21.0813 607.0835)"
   font-family="'Verdana'"
   font-size="100"
   id="text59">2</text>


		<text
   transform="matrix(1 0 0 1 21.0569 757.1685)"
   font-family="'Verdana'"
   font-size="100"
   id="text61">3</text>


		<text
   transform="matrix(1 0 0 1 20.6663 906.6426)"
   font-family="'Verdana'"
   font-size="100"
   id="text63">4</text>


		<text
   transform="matrix(1 0 0 1 22.2288 1057.5571)"
   font-family="'Verdana'"
   font-size="100"
   id="text65">5</text>


		<text
   transform="matrix(1 0 0 1 21.3743 1207.7153)"
   font-family="'Verdana'"
   font-size="100"
   id="text67">6</text>


		<text
   transform="matrix(1 0 0 1 21.0081 1358.6304)"
   font-family="'Verdana'"
   font-size="100"
   id="text69">7</text>


		<text
   transform="matrix(1 0 0 1 20.2268 1508.1538)"
   font-family="'Verdana'"
   font-size="100"
   id="text71">8</text>


	</g>
</g>
<path
   id="p"
   stroke="#FFFFFF"
   stroke-width="5"
   stroke-linecap="round"
   d="M164.342,1660.848  c-6.772,0-12.269,5.497-12.269,12.271c0,2.715,0.901,5.253,2.396,7.285c-5.987,3.442-10.064,9.858-10.064,17.255  c0,6.24,2.89,11.777,7.381,15.435c-9.199,3.245-22.717,17.015-22.717,41.315h70.546c0-24.301-13.518-38.07-22.717-41.315  c4.491-3.657,7.38-9.194,7.38-15.435c0-7.396-4.077-13.813-10.064-17.255c1.495-2.032,2.396-4.57,2.396-7.285  C176.611,1666.345,171.115,1660.848,164.342,1660.848z"
   inkscape:label="p" />
<path
   id="path2575"
   fill="#FFFFFF"
   stroke="#000000"
   stroke-width="5"
   stroke-linecap="round"
   d="M1228.976,139.519  c-6.772,0-12.269,5.497-12.269,12.27c0,2.715,0.901,5.253,2.396,7.286c-5.986,3.442-10.063,9.857-10.063,17.255  c0,6.239,2.889,11.777,7.38,15.434c-9.199,3.245-22.717,17.015-22.717,41.316h70.547c0-24.301-13.518-38.071-22.717-41.316  c4.491-3.657,7.38-9.195,7.38-15.434c0-7.397-4.076-13.813-10.064-17.255c1.495-2.033,2.396-4.57,2.396-7.286  C1241.244,145.016,1235.748,139.519,1228.976,139.519z" />
<g
   id="B"
   transform="matrix(3.067229,0,0,3.067558,-405.02143,-3056.8514)"
   inkscape:label="B">
	<path
   id="path2996"
   fill="#FFFFFF"
   stroke="#000000"
   stroke-width="1.63"
   stroke-linejoin="round"
   d="M270.786,1032.414   c3.385-0.972,10.115,0.431,13.5-2c3.385,2.431,10.115,1.028,13.5,2c0,0,1.646,0.542,3,2c-0.677,0.972-1.646,0.986-3,0.5   c-3.385-0.972-10.115,0.458-13.5-1c-3.385,1.458-10.115,0.028-13.5,1c-1.354,0.486-2.323,0.472-3-0.5   C269.14,1032.47,270.786,1032.414,270.786,1032.414z" />
	<path
   id="path2998"
   fill="#FFFFFF"
   stroke="#000000"
   stroke-width="1.63"
   stroke-linejoin="round"
   d="M276.786,1028.414   c2.5,2.5,12.5,2.5,15,0c0.5-1.5,0-2,0-2c0-2.5-2.5-4-2.5-4c5.5-1.5,6-11.5-5-15.5c-11,4-10.5,14-5,15.5c0,0-2.5,1.5-2.5,4   C276.786,1026.415,276.286,1026.914,276.786,1028.414z" />
	<path
   id="path3000"
   fill="#FFFFFF"
   stroke="#000000"
   stroke-width="1.63"
   stroke-linejoin="round"
   d="M286.786,1004.414   c0,1.381-1.119,2.5-2.5,2.5c-1.381,0-2.5-1.119-2.5-2.5s1.119-2.5,2.5-2.5C285.666,1001.914,286.786,1003.034,286.786,1004.414z" />
	<path
   id="path3002"
   fill="none"
   stroke="#000000"
   stroke-width="1.63"
   d="M279.286,1022.414h10" />
	<path
   id="path3004"
   fill="none"
   stroke="#000000"
   stroke-width="1.63"
   d="M276.786,1026.415h15" />
	<path
   id="path3006"
   fill="none"
   stroke="#000000"
   stroke-width="1.63"
   stroke-linecap="round"
   d="M284.286,1011.914v5" />
	<path
   id="path3008"
   fill="none"
   stroke="#000000"
   stroke-width="1.63"
   stroke-linecap="round"
   d="M281.786,1014.414h5" />
</g>
<g
   id="R"
   transform="matrix(3.067229,0,0,3.067558,-737.58485,-3349.7595)"
   inkscape:label="R">
	<path
   id="path3119"
   d="M280.786,1130.715h27v-3h-27   V1130.715z"
   stroke-linejoin="round"
   stroke-width="1.63"
   stroke="#000000"
   fill="#FFFFFF" />
	<path
   id="path3121"
   d="M283.786,1127.715v-4h21v4   H283.786z"
   stroke-linejoin="round"
   stroke-width="1.63"
   stroke="#000000"
   fill="#FFFFFF" />
	<path
   id="path3129"
   d="M282.786,1105.714v-5h4v2h5   v-2h5v2h5v-2h4v5"
   stroke-linejoin="round"
   stroke-width="1.63"
   stroke="#000000"
   fill="#FFFFFF" />
	<path
   id="path3127"
   d="   M305.786,1105.714l-3,3h-17l-3-3"
   stroke-linejoin="round"
   stroke-linecap="round"
   stroke-width="1.63"
   stroke="#000000"
   fill="#FFFFFF" />
	<path
   id="path3125"
   d="M302.786,1108.714v12.5h-17v-12.5"
   stroke-width="1.63"
   stroke="#000000"
   fill="#FFFFFF" />
	<path
   id="path3123"
   d="   M302.786,1121.215l1.5,2.5h-20l1.5-2.5"
   stroke-linejoin="round"
   stroke-linecap="round"
   stroke-width="1.63"
   stroke="#000000"
   fill="#FFFFFF" />
	<path
   id="path5175"
   d="M282.786,1105.714h23"
   stroke-linecap="round"
   stroke-width="1.63"
   stroke="#000000"
   fill="none" />
</g>
<g
   id="g3388"
   transform="matrix(3.067229,0,0,3.067558,47.815217,-3056.8514)">
	<path
   id="path3390"
   fill="#FFFFFF"
   stroke="#000000"
   stroke-width="1.63"
   stroke-linejoin="round"
   d="M270.786,1032.414   c3.385-0.972,10.115,0.431,13.5-2c3.385,2.431,10.115,1.028,13.5,2c0,0,1.646,0.542,3,2c-0.677,0.972-1.646,0.986-3,0.5   c-3.385-0.972-10.115,0.458-13.5-1c-3.385,1.458-10.115,0.028-13.5,1c-1.354,0.486-2.323,0.472-3-0.5   C269.14,1032.47,270.786,1032.414,270.786,1032.414z" />
	<path
   id="path3392"
   fill="#FFFFFF"
   stroke="#000000"
   stroke-width="1.63"
   stroke-linejoin="round"
   d="M276.786,1028.414   c2.5,2.5,12.5,2.5,15,0c0.5-1.5,0-2,0-2c0-2.5-2.5-4-2.5-4c5.5-1.5,6-11.5-5-15.5c-11,4-10.5,14-5,15.5c0,0-2.5,1.5-2.5,4   C276.786,1026.415,276.286,1026.914,276.786,1028.414z" />
	<path
   id="path3394"
   fill="#FFFFFF"
   stroke="#000000"
   stroke-width="1.63"
   stroke-linejoin="round"
   d="M286.786,1004.414   c0,1.381-1.119,2.5-2.5,2.5c-1.381,0-2.5-1.119-2.5-2.5s1.119-2.5,2.5-2.5C285.666,1001.914,286.786,1003.034,286.786,1004.414z" />
	<path
   id="path3396"
   fill="none"
   stroke="#000000"
   stroke-width="1.63"
   d="M279.286,1022.414h10" />
	<path
   id="path3398"
   fill="none"
   stroke="#000000"
   stroke-width="1.63"
   d="M276.786,1026.415h15" />
	<path
   id="path3400"
   fill="none"
   stroke="#000000"
   stroke-width="1.63"
   stroke-linecap="round"
   d="M284.286,1011.914v5" />
	<path
   id="path3402"
   fill="none"
   stroke="#000000"
   stroke-width="1.63"
   stroke-linecap="round"
   d="M281.786,1014.414h5" />
</g>
<g
   id="g3416"
   transform="matrix(3.067229,0,0,3.067558,319.03409,-3349.7595)">
	<path
   id="path3418"
   fill="#FFFFFF"
   stroke="#000000"
   stroke-width="1.63"
   stroke-linejoin="round"
   d="M280.786,1130.715h27v-3h-27   V1130.715z" />
	<path
   id="path3420"
   fill="#FFFFFF"
   stroke="#000000"
   stroke-width="1.63"
   stroke-linejoin="round"
   d="M283.786,1127.715v-4h21v4   H283.786z" />
	<path
   id="path3422"
   fill="#FFFFFF"
   stroke="#000000"
   stroke-width="1.63"
   stroke-linejoin="round"
   d="M282.786,1105.714v-5h4v2h5   v-2h5v2h5v-2h4v5" />
	<path
   id="path3424"
   fill="#FFFFFF"
   stroke="#000000"
   stroke-width="1.63"
   stroke-linecap="round"
   stroke-linejoin="round"
   d="   M305.786,1105.714l-3,3h-17l-3-3" />
	<path
   id="path3426"
   fill="#FFFFFF"
   stroke="#000000"
   stroke-width="1.63"
   d="M302.786,1108.714v12.5h-17v-12.5" />
	<path
   id="path3428"
   fill="#FFFFFF"
   stroke="#000000"
   stroke-width="1.63"
   stroke-linecap="round"
   stroke-linejoin="round"
   d="   M302.786,1121.215l1.5,2.5h-20l1.5-2.5" />
	<path
   id="path3430"
   fill="none"
   stroke="#000000"
   stroke-width="1.63"
   stroke-linecap="round"
   d="M282.786,1105.714h23" />
</g>
<path
   id="path3432"
   fill="#FFFFFF"
   stroke="#000000"
   stroke-width="5"
   stroke-linecap="round"
   d="M1076.937,139.52  c-6.772,0-12.269,5.497-12.269,12.27c0,2.715,0.901,5.253,2.396,7.286c-5.987,3.442-10.064,9.857-10.064,17.255  c0,6.239,2.89,11.777,7.38,15.434c-9.198,3.245-22.717,17.015-22.717,41.316h70.547c0-24.301-13.518-38.071-22.717-41.316  c4.491-3.657,7.381-9.195,7.381-15.434c0-7.397-4.077-13.813-10.064-17.255c1.494-2.033,2.396-4.57,2.396-7.286  C1089.207,145.017,1083.71,139.52,1076.937,139.52z" />
<path
   id="path3434"
   fill="#FFFFFF"
   stroke="#000000"
   stroke-width="5"
   stroke-linecap="round"
   d="M924.899,139.52  c-6.772,0-12.269,5.497-12.269,12.27c0,2.715,0.901,5.253,2.396,7.286c-5.987,3.442-10.064,9.857-10.064,17.255  c0,6.239,2.89,11.777,7.381,15.434c-9.199,3.245-22.717,17.015-22.717,41.316h70.546c0-24.301-13.518-38.071-22.717-41.316  c4.491-3.657,7.381-9.195,7.381-15.434c0-7.397-4.077-13.813-10.064-17.255c1.495-2.033,2.396-4.57,2.396-7.286  C937.169,145.017,931.672,139.52,924.899,139.52z" />
<path
   id="path3436"
   fill="#FFFFFF"
   stroke="#000000"
   stroke-width="5"
   stroke-linecap="round"
   d="M772.862,139.52  c-6.772,0-12.27,5.497-12.27,12.27c0,2.715,0.902,5.253,2.396,7.286c-5.987,3.442-10.064,9.857-10.064,17.255  c0,6.239,2.89,11.777,7.381,15.434c-9.199,3.245-22.717,17.015-22.717,41.316h70.546c0-24.301-13.518-38.071-22.717-41.316  c4.491-3.657,7.381-9.195,7.381-15.434c0-7.397-4.077-13.813-10.064-17.255c1.495-2.033,2.396-4.57,2.396-7.286  C785.131,145.017,779.635,139.52,772.862,139.52z" />
<path
   id="path3438"
   fill="#FFFFFF"
   stroke="#000000"
   stroke-width="5"
   stroke-linecap="round"
   d="M620.824,139.52  c-6.772,0-12.27,5.497-12.27,12.27c0,2.715,0.902,5.253,2.396,7.286c-5.987,3.442-10.064,9.857-10.064,17.255  c0,6.239,2.89,11.777,7.381,15.434c-9.199,3.245-22.717,17.015-22.717,41.316h70.546c0-24.301-13.518-38.071-22.716-41.316  c4.49-3.657,7.38-9.195,7.38-15.434c0-7.397-4.077-13.813-10.064-17.255c1.495-2.033,2.396-4.57,2.396-7.286  C633.093,145.017,627.597,139.52,620.824,139.52z" />
<path
   id="path3440"
   fill="#FFFFFF"
   stroke="#000000"
   stroke-width="5"
   stroke-linecap="round"
   d="M468.786,139.52  c-6.772,0-12.269,5.497-12.269,12.27c0,2.715,0.901,5.253,2.396,7.286c-5.987,3.442-10.064,9.857-10.064,17.255  c0,6.239,2.89,11.777,7.381,15.434c-9.199,3.245-22.717,17.015-22.717,41.316h70.547c0-24.301-13.518-38.071-22.717-41.316  c4.491-3.657,7.38-9.195,7.38-15.434c0-7.397-4.077-13.813-10.064-17.255c1.495-2.033,2.396-4.57,2.396-7.286  C481.055,145.017,475.558,139.52,468.786,139.52z" />
<path
   id="path3442"
   fill="#FFFFFF"
   stroke="#000000"
   stroke-width="5"
   stroke-linecap="round"
   d="M316.748,139.52  c-6.772,0-12.269,5.497-12.269,12.27c0,2.715,0.902,5.253,2.396,7.286c-5.987,3.442-10.064,9.857-10.064,17.255  c0,6.239,2.89,11.777,7.38,15.434c-9.199,3.245-22.716,17.015-22.716,41.316h70.546c0-24.301-13.518-38.071-22.717-41.316  c4.491-3.657,7.381-9.195,7.381-15.434c0-7.397-4.077-13.813-10.064-17.255c1.494-2.033,2.396-4.57,2.396-7.286  C329.016,145.017,323.52,139.52,316.748,139.52z" />
<path
   id="P"
   fill="#FFFFFF"
   stroke="#000000"
   stroke-width="5"
   stroke-linecap="round"
   d="M164.71,139.52  c-6.772,0-12.269,5.497-12.269,12.27c0,2.715,0.901,5.253,2.396,7.286c-5.987,3.442-10.064,9.857-10.064,17.255  c0,6.239,2.889,11.777,7.38,15.434c-9.199,3.245-22.717,17.015-22.717,41.316h70.546c0-24.301-13.518-38.071-22.717-41.316  c4.491-3.657,7.38-9.195,7.38-15.434c0-7.397-4.077-13.813-10.064-17.255c1.495-2.033,2.396-4.57,2.396-7.286  C176.979,145.017,171.482,139.52,164.71,139.52z"
   inkscape:label="P" />
<path
   id="path17042"
   stroke="#FFFFFF"
   stroke-width="5"
   stroke-linecap="round"
   d="M316.903,1660.848  c-6.772,0-12.269,5.497-12.269,12.271c0,2.715,0.902,5.253,2.396,7.285c-5.987,3.442-10.064,9.858-10.064,17.255  c0,6.24,2.89,11.777,7.38,15.435c-9.199,3.245-22.716,17.015-22.716,41.315h70.546c0-24.301-13.518-38.07-22.717-41.315  c4.491-3.657,7.381-9.194,7.381-15.435c0-7.396-4.077-13.813-10.064-17.255c1.494-2.032,2.396-4.57,2.396-7.285  C329.172,1666.345,323.676,1660.848,316.903,1660.848z" />
<path
   id="path17044"
   stroke="#FFFFFF"
   stroke-width="5"
   stroke-linecap="round"
   d="M469.464,1660.848  c-6.772,0-12.269,5.497-12.269,12.271c0,2.715,0.901,5.253,2.396,7.285c-5.987,3.442-10.064,9.858-10.064,17.255  c0,6.24,2.89,11.777,7.381,15.435c-9.199,3.245-22.717,17.015-22.717,41.315h70.546c0-24.301-13.518-38.07-22.717-41.315  c4.491-3.657,7.381-9.194,7.381-15.435c0-7.396-4.077-13.813-10.064-17.255c1.494-2.032,2.396-4.57,2.396-7.285  C481.733,1666.345,476.236,1660.848,469.464,1660.848z" />
<path
   id="path17046"
   stroke="#FFFFFF"
   stroke-width="5"
   stroke-linecap="round"
   d="M622.025,1660.848  c-6.772,0-12.27,5.497-12.27,12.271c0,2.715,0.902,5.253,2.396,7.285c-5.987,3.442-10.064,9.858-10.064,17.255  c0,6.24,2.89,11.777,7.381,15.435c-9.199,3.245-22.717,17.015-22.717,41.315h70.546c0-24.301-13.518-38.07-22.716-41.315  c4.49-3.657,7.38-9.194,7.38-15.435c0-7.396-4.077-13.813-10.064-17.255c1.495-2.032,2.396-4.57,2.396-7.285  C634.294,1666.345,628.798,1660.848,622.025,1660.848z" />
<path
   id="path17048"
   stroke="#FFFFFF"
   stroke-width="5"
   stroke-linecap="round"
   d="M774.586,1660.848  c-6.772,0-12.269,5.497-12.269,12.271c0,2.715,0.901,5.253,2.396,7.285c-5.987,3.442-10.064,9.858-10.064,17.255  c0,6.24,2.889,11.777,7.38,15.435c-9.199,3.245-22.717,17.015-22.717,41.315h70.547c0-24.301-13.518-38.07-22.717-41.315  c4.491-3.657,7.381-9.194,7.381-15.435c0-7.396-4.077-13.813-10.064-17.255c1.494-2.032,2.396-4.57,2.396-7.285  C786.855,1666.345,781.358,1660.848,774.586,1660.848z" />
<path
   id="path17050"
   stroke="#FFFFFF"
   stroke-width="5"
   stroke-linecap="round"
   d="M927.146,1660.848  c-6.772,0-12.269,5.497-12.269,12.271c0,2.715,0.901,5.253,2.396,7.285c-5.987,3.442-10.064,9.858-10.064,17.255  c0,6.24,2.89,11.777,7.381,15.435c-9.199,3.245-22.717,17.015-22.717,41.315h70.546c0-24.301-13.518-38.07-22.717-41.315  c4.491-3.657,7.381-9.194,7.381-15.435c0-7.396-4.077-13.813-10.064-17.255c1.494-2.032,2.396-4.57,2.396-7.285  C939.416,1666.345,933.919,1660.848,927.146,1660.848z" />
<path
   id="path17052"
   stroke="#FFFFFF"
   stroke-width="5"
   stroke-linecap="round"
   d="M1079.708,1660.848  c-6.772,0-12.27,5.497-12.27,12.271c0,2.715,0.902,5.253,2.396,7.285c-5.987,3.442-10.064,9.858-10.064,17.255  c0,6.24,2.89,11.777,7.381,15.435c-9.199,3.245-22.717,17.015-22.717,41.315h70.546c0-24.301-13.518-38.07-22.716-41.315  c4.49-3.657,7.38-9.194,7.38-15.435c0-7.396-4.077-13.813-10.064-17.255c1.495-2.032,2.396-4.57,2.396-7.285  C1091.976,1666.345,1086.48,1660.848,1079.708,1660.848z" />
<path
   id="path17054"
   stroke="#FFFFFF"
   stroke-width="5"
   stroke-linecap="round"
   d="M1232.268,1660.848  c-6.772,0-12.269,5.497-12.269,12.271c0,2.715,0.901,5.253,2.396,7.285c-5.986,3.442-10.063,9.858-10.063,17.255  c0,6.24,2.889,11.777,7.38,15.435c-9.199,3.245-22.717,17.015-22.717,41.315h70.547c0-24.301-13.518-38.07-22.717-41.315  c4.491-3.657,7.38-9.194,7.38-15.435c0-7.396-4.076-13.813-10.063-17.255c1.494-2.032,2.396-4.57,2.396-7.285  C1244.537,1666.345,1239.041,1660.848,1232.268,1660.848z" />
<g
   id="g46309"
   transform="translate(358.66541,442.86179)">
	<path
   id="path46311"
   fill="none"
   stroke="#FFFFFF"
   stroke-width="10"
   stroke-linejoin="round"
   d="M-227.127,1436.207h85.549v-9.705   h-85.549v9.096V1436.207z" />
	<path
   id="path46313"
   fill="none"
   stroke="#FFFFFF"
   stroke-width="5"
   stroke-linejoin="round"
   d="M-217.25,1415.526l5.106-8.088   h54.831l5.106,8.088H-217.25z" />
	<path
   id="path46315"
   fill="none"
   stroke="#FFFFFF"
   stroke-width="10"
   stroke-linejoin="round"
   d="M-217.273,1428.467v-12.94h65.519   v12.94H-217.273z" />
	<path
   id="path46317"
   fill="none"
   stroke="#FFFFFF"
   stroke-width="10"
   d="M-211.429,1407.438v-42.055h53.403v42.055H-211.429z" />
	<path
   id="path46319"
   fill="none"
   stroke="#FFFFFF"
   stroke-width="10"
   stroke-linejoin="round"
   d="M-210.537,1367.259l-10.212-8.087   l72.72-0.179l-10.212,8.087L-210.537,1367.259z" />
	<path
   id="path46321"
   fill="none"
   stroke="#FFFFFF"
   stroke-width="10"
   stroke-linejoin="round"
   d="M-220.749,1357.297v-14.746   h13.902v6.47h14.02v-6.47h18.163v6.47h12.091v-6.47h14.401v14.746H-220.749z" />
	<path
   id="path46323"
   stroke="#000000"
   stroke-width="1.5"
   stroke-linejoin="round"
   d="M-225.792,1436.134h82.815v-9.203h-82.815   V1436.134z" />
	<path
   id="path46325"
   stroke="#000000"
   stroke-width="1.5"
   stroke-linejoin="round"
   d="M-215.057,1414.66l4.601-7.669h52.143   l4.601,7.669H-215.057z" />
	<path
   id="path46327"
   stroke="#000000"
   stroke-width="1.5"
   stroke-linejoin="round"
   d="M-216.59,1426.931v-12.271h64.412v12.271   H-216.59z" />
	<path
   id="path46329"
   stroke="#000000"
   stroke-width="1.5"
   d="M-210.456,1406.991v-39.878h52.143v39.878H-210.456z" />
	<path
   id="path46331"
   stroke="#000000"
   stroke-width="1.5"
   stroke-linejoin="round"
   d="M-210.456,1367.113l-9.202-7.669h70.546   l-9.202,7.669H-210.456z" />
	<path
   id="path46333"
   stroke="#000000"
   stroke-width="1.5"
   stroke-linejoin="round"
   d="M-219.658,1359.444v-15.338h12.269v6.136   h15.336v-6.136h15.336v6.136h15.336v-6.136h12.269v15.338H-219.658z" />
	<path
   id="path46335"
   fill="none"
   stroke="#FFFFFF"
   stroke-width="4"
   stroke-linecap="round"
   d="M-216.59,1423.969h64.412l0,0" />
	<path
   id="path46337"
   fill="none"
   stroke="#FFFFFF"
   stroke-width="4"
   stroke-linecap="round"
   d="M-213.523,1412.056h58.277" />
	<path
   id="path46339"
   fill="none"
   stroke="#FFFFFF"
   stroke-linecap="round"
   d="M-210.456,1406.991h52.143" />
	<path
   id="path46341"
   fill="none"
   stroke="#FFFFFF"
   stroke-linecap="round"
   d="M-210.456,1367.113h52.143" />
	<path
   id="path46343"
   fill="none"
   stroke="#FFFFFF"
   stroke-width="4"
   stroke-linecap="round"
   d="M-219.658,1359.444h70.546" />
</g>
<g
   id="g46345"
   transform="translate(1414.2752,442.86179)">
	<path
   id="path46347"
   fill="none"
   stroke="#FFFFFF"
   stroke-width="10"
   stroke-linejoin="round"
   d="M-227.128,1436.207h85.55v-9.705   h-85.55v9.096V1436.207z" />
	<path
   id="path46349"
   fill="none"
   stroke="#FFFFFF"
   stroke-width="5"
   stroke-linejoin="round"
   d="M-217.25,1415.526l5.106-8.088   h54.831l5.106,8.088H-217.25z" />
	<path
   id="path46351"
   fill="none"
   stroke="#FFFFFF"
   stroke-width="10"
   stroke-linejoin="round"
   d="M-217.273,1428.467v-12.94h65.519   v12.94H-217.273z" />
	<path
   id="path46353"
   fill="none"
   stroke="#FFFFFF"
   stroke-width="10"
   d="M-211.43,1407.438v-42.055h53.403v42.055H-211.43z" />
	<path
   id="path46355"
   fill="none"
   stroke="#FFFFFF"
   stroke-width="10"
   stroke-linejoin="round"
   d="M-210.537,1367.259l-10.211-8.087   l72.719-0.179l-10.212,8.087L-210.537,1367.259z" />
	<path
   id="path46357"
   fill="none"
   stroke="#FFFFFF"
   stroke-width="10"
   stroke-linejoin="round"
   d="M-220.748,1357.297v-14.746   h13.901v6.47h14.02v-6.47h18.162v6.47h12.092v-6.47h14.401v14.746H-220.748z" />
	<path
   id="path46359"
   stroke="#000000"
   stroke-width="1.5"
   stroke-linejoin="round"
   d="M-225.792,1436.134h82.814v-9.203h-82.814   V1436.134z" />
	<path
   id="path46361"
   stroke="#000000"
   stroke-width="1.5"
   stroke-linejoin="round"
   d="M-215.057,1414.66l4.601-7.669h52.143   l4.601,7.669H-215.057z" />
	<path
   id="path46363"
   stroke="#000000"
   stroke-width="1.5"
   stroke-linejoin="round"
   d="M-216.591,1426.931v-12.271h64.412v12.271   H-216.591z" />
	<path
   id="path46365"
   stroke="#000000"
   stroke-width="1.5"
   d="M-210.456,1406.991v-39.878h52.143v39.878H-210.456z" />
	<path
   id="path46367"
   stroke="#000000"
   stroke-width="1.5"
   stroke-linejoin="round"
   d="M-210.456,1367.113l-9.202-7.669h70.547   l-9.202,7.669H-210.456z" />
	<path
   id="path46369"
   stroke="#000000"
   stroke-width="1.5"
   stroke-linejoin="round"
   d="M-219.658,1359.444v-15.338h12.27v6.136   h15.336v-6.136h15.336v6.136h15.336v-6.136h12.27v15.338H-219.658z" />
	<path
   id="path46371"
   fill="none"
   stroke="#FFFFFF"
   stroke-width="4"
   stroke-linecap="round"
   d="M-216.591,1423.969h64.412l0,0" />
	<path
   id="path46373"
   fill="none"
   stroke="#FFFFFF"
   stroke-width="4"
   stroke-linecap="round"
   d="M-213.523,1412.056h58.277" />
	<path
   id="path46375"
   fill="none"
   stroke="#FFFFFF"
   stroke-linecap="round"
   d="M-210.456,1406.991h52.143" />
	<path
   id="path46377"
   fill="none"
   stroke="#FFFFFF"
   stroke-linecap="round"
   d="M-210.456,1367.113h52.143" />
	<path
   id="path46379"
   fill="none"
   stroke="#FFFFFF"
   stroke-width="4"
   stroke-linecap="round"
   d="M-219.658,1359.444h70.547" />
</g>
<g
   id="N"
   transform="translate(-80.987583,-1809.837)"
   inkscape:label="N">
	<path
   id="path60675"
   d="M395.847,1836.292c37.532,4.161,54.642,26.149,53.008,94.791h-75.886   c-0.893-36.918,30.719-21.425,24.183-68.82" />
	<path
   id="path60677"
   d="M405.985,1863.176c1.371,9.71-16.585,24.578-25.311,30.02c-10.697,6.671-10.052,14.486-17.828,13.342   c-4.119-5.333,0.434-5.904-3.566-3.335c-3.565,0-14.274,3.335-14.262-13.342c0-6.671,18.894-40.026,18.894-40.026   s5.296-6.345,5.703-11.674c-2.589-3.317-1.068-6.671-1.068-10.007c3.565-3.335,12.661,8.339,12.661,8.339h4.274   c0,0,3.681-6.644,9.808-10.006c3.565,0,3.565,10.006,3.565,10.006" />
	<path
   id="path60679"
   fill="#F2F2F2"
   d="M354.993,1886.956c0,0.902-0.731,1.634-1.634,1.634c-0.902,0-1.634-0.732-1.634-1.634   c0-0.903,0.732-1.634,1.634-1.634C354.262,1885.321,354.993,1886.053,354.993,1886.956z" />
	<path
   id="path60681"
   fill="#F2F2F2"
   d="M372.75,1855.086c-1.354,2.345-3.085,3.88-3.867,3.429   c-0.781-0.452-0.317-2.718,1.036-5.063c1.354-2.345,3.085-3.88,3.867-3.429C374.568,1850.474,374.104,1852.741,372.75,1855.086z" />
	<path
   id="path60683"
   d="M404.182,1837.599l-0.98,3.596l1.797,0.327c10.137,1.56,20.668,7.303,28.026,21.226   c7.358,13.923,9.55,35.834,7.926,68.335l-0.164,0.027h5.72v-0.027c1.644-32.873-2.864-55.088-10.622-69.766   s-18.92-21.682-30.027-23.392L404.182,1837.599z" />
	<path
   id="path60685"
   fill="#FFFFFF"
   stroke="#000000"
   stroke-linecap="round"
   d="M396.952,1839.188   c32.206,3.068,50.609,24.541,49.075,88.959h-70.546c0-27.608,30.672-19.939,24.538-64.419" />
	<path
   id="path60687"
   fill="#FFFFFF"
   stroke="#000000"
   stroke-linecap="round"
   stroke-linejoin="round"
   d="M403.086,1863.729   c1.18,8.931-17.032,22.604-24.538,27.608c-9.202,6.135-8.647,13.322-15.336,12.271c-3.195-2.896,4.335-9.318,0-9.203   c-3.067,0,0.575,3.778-3.067,6.135c-3.067,0-12.278,3.067-12.269-12.271c0-6.135,18.403-36.811,18.403-36.811   s5.784-5.835,6.134-10.736c-2.227-3.051-1.534-6.135-1.534-9.203c3.067-3.067,9.202,7.669,9.202,7.669h6.135   c0,0,2.397-6.11,7.668-9.203c3.067,0,3.067,9.203,3.067,9.203" />
	<path
   id="path60689"
   stroke="#000000"
   stroke-width="0.326"
   stroke-linecap="round"
   stroke-linejoin="round"
   d="M358.611,1886.735   c0,0.847-0.687,1.534-1.533,1.534c-0.847,0-1.534-0.687-1.534-1.534s0.687-1.534,1.534-1.534   C357.925,1885.202,358.611,1885.888,358.611,1886.735z" />
	<path
   id="path60691"
   stroke="#000000"
   stroke-width="0.326"
   stroke-linecap="round"
   stroke-linejoin="round"
   d="M375.276,1856.827   c-1.271,2.201-2.895,3.642-3.628,3.218c-0.734-0.423-0.298-2.551,0.972-4.751s2.895-3.642,3.628-3.218   C376.982,1852.499,376.547,1854.626,375.276,1856.827z" />
	<path
   id="path60693"
   d="M403.845,1840.415l-0.92,3.375l1.687,0.307c9.513,1.464,19.396,6.854,26.302,19.92   s9.892,32.666,8.366,63.167l-0.153,1.534h5.368v-1.534c1.542-30.85-3.617-50.734-10.897-64.509   c-7.28-13.775-17.756-20.349-28.18-21.952L403.845,1840.415z" />
</g>
<g
   id="g60695"
   transform="translate(673.7402,-1809.837)">
	<path
   id="path60697"
   d="M395.848,1836.292c37.531,4.161,54.641,26.149,53.007,94.791h-75.886   c-0.893-36.918,30.719-21.425,24.183-68.82" />
	<path
   id="path60699"
   d="M405.985,1863.176c1.371,9.71-16.585,24.578-25.311,30.02c-10.696,6.671-10.052,14.486-17.828,13.342   c-4.119-5.333,0.435-5.904-3.565-3.335c-3.565,0-14.273,3.335-14.263-13.342c0-6.671,18.894-40.026,18.894-40.026   s5.296-6.345,5.703-11.674c-2.589-3.317-1.068-6.671-1.068-10.007c3.565-3.335,12.661,8.339,12.661,8.339h4.273   c0,0,3.681-6.644,9.808-10.006c3.565,0,3.565,10.006,3.565,10.006" />
	<path
   id="path60701"
   fill="#F2F2F2"
   d="M354.993,1886.956c0,0.902-0.731,1.634-1.634,1.634s-1.635-0.732-1.635-1.634   c0-0.903,0.732-1.634,1.635-1.634S354.993,1886.053,354.993,1886.956z" />
	<path
   id="path60703"
   fill="#F2F2F2"
   d="M372.75,1855.086c-1.354,2.345-3.085,3.88-3.866,3.429   c-0.782-0.452-0.318-2.718,1.036-5.063c1.354-2.345,3.085-3.88,3.866-3.429C374.567,1850.474,374.103,1852.741,372.75,1855.086z" />
	<path
   id="path60705"
   d="M404.182,1837.599l-0.98,3.596l1.797,0.327c10.137,1.56,20.668,7.303,28.026,21.226   c7.358,13.923,9.551,35.834,7.926,68.335l-0.164,0.027h5.72v-0.027c1.644-32.873-2.864-55.088-10.622-69.766   c-7.757-14.678-18.92-21.682-30.027-23.392L404.182,1837.599z" />
	<path
   id="path60707"
   fill="#FFFFFF"
   stroke="#000000"
   stroke-linecap="round"
   d="M396.952,1839.188   c32.206,3.068,50.609,24.541,49.075,88.959h-70.546c0-27.608,30.673-19.939,24.538-64.419" />
	<path
   id="path60709"
   fill="#FFFFFF"
   stroke="#000000"
   stroke-linecap="round"
   stroke-linejoin="round"
   d="M403.087,1863.729   c1.179,8.931-17.032,22.604-24.538,27.608c-9.202,6.135-8.647,13.322-15.336,12.271c-3.195-2.896,4.335-9.318,0-9.203   c-3.067,0,0.574,3.778-3.067,6.135c-3.067,0-12.278,3.067-12.269-12.271c0-6.135,18.403-36.811,18.403-36.811   s5.784-5.835,6.134-10.736c-2.227-3.051-1.533-6.135-1.533-9.203c3.067-3.067,9.201,7.669,9.201,7.669h6.135   c0,0,2.398-6.11,7.668-9.203c3.067,0,3.067,9.203,3.067,9.203" />
	<path
   id="path60711"
   stroke="#000000"
   stroke-width="0.326"
   stroke-linecap="round"
   stroke-linejoin="round"
   d="M358.611,1886.735   c0,0.847-0.687,1.534-1.533,1.534s-1.533-0.687-1.533-1.534s0.687-1.534,1.533-1.534S358.611,1885.888,358.611,1886.735z" />
	<path
   id="path60713"
   stroke="#000000"
   stroke-width="0.326"
   stroke-linecap="round"
   stroke-linejoin="round"
   d="M375.276,1856.827   c-1.271,2.201-2.896,3.642-3.629,3.218c-0.733-0.423-0.298-2.551,0.973-4.751s2.895-3.642,3.628-3.218   C376.981,1852.499,376.547,1854.626,375.276,1856.827z" />
	<path
   id="path60715"
   d="M403.845,1840.415l-0.92,3.375l1.687,0.307c9.514,1.464,19.396,6.854,26.302,19.92   c6.906,13.066,9.892,32.666,8.367,63.167l-0.153,1.534h5.367v-1.534c1.542-30.85-3.617-50.734-10.896-64.509   c-7.28-13.775-17.757-20.349-28.181-21.952L403.845,1840.415z" />
</g>
<g
   id="g49858"
   transform="translate(846.26386,-48.244112)">
	<path
   id="path48825"
   fill="#FFFFFF"
   d="M231.715,1837.495c37.531,4.161,54.642,26.148,53.007,94.791h-75.885   c-0.894-36.918,30.719-21.425,24.182-68.82" />
	<path
   id="path48827"
   fill="#FFFFFF"
   d="M241.853,1864.379c1.37,9.711-16.586,24.578-25.312,30.02   c-10.696,6.671-10.052,14.486-17.828,13.342c-4.118-5.332,0.435-5.903-3.565-3.335c-3.565,0-14.273,3.335-14.263-13.343   c0-6.671,18.894-40.025,18.894-40.025s5.296-6.346,5.703-11.675c-2.589-3.317-1.068-6.671-1.068-10.007   c3.565-3.335,12.661,8.339,12.661,8.339h4.274c0,0,3.68-6.644,9.807-10.007c3.565,0,3.565,10.007,3.565,10.007" />
	<path
   id="path48829"
   fill="#F2F2F2"
   d="M190.86,1888.159c0,0.902-0.731,1.634-1.634,1.634s-1.634-0.731-1.634-1.634   s0.731-1.635,1.634-1.635S190.86,1887.256,190.86,1888.159z" />
	<path
   id="path48831"
   fill="#F2F2F2"
   d="M208.617,1856.289c-1.354,2.345-3.085,3.88-3.866,3.429s-0.317-2.719,1.036-5.063   s3.085-3.881,3.866-3.429C210.435,1851.677,209.971,1853.944,208.617,1856.289z" />
	<path
   id="path48833"
   fill="#FFFFFF"
   d="M240.048,1838.801l-0.98,3.596l1.798,0.327c10.136,1.56,20.667,7.303,28.025,21.226   c7.358,13.924,9.551,35.835,7.926,68.336l-0.163,0.027h5.719v-0.027c1.644-32.873-2.864-55.088-10.621-69.766   c-7.758-14.678-18.921-21.683-30.028-23.392L240.048,1838.801z" />
	<path
   id="path48837"
   stroke="#000000"
   stroke-linecap="round"
   d="M232.819,1840.391c32.206,3.067,50.609,24.541,49.076,88.959   h-70.547c0-27.607,30.673-19.939,24.538-64.418" />
	<path
   id="path48839"
   stroke="#000000"
   stroke-linecap="round"
   stroke-linejoin="round"
   d="M238.954,1864.932   c1.179,8.93-17.032,22.604-24.538,27.607c-9.201,6.135-8.646,13.322-15.336,12.271c-3.195-2.896,4.335-9.318,0-9.203   c-3.067,0,0.574,3.778-3.067,6.136c-3.067,0-12.278,3.067-12.269-12.271c0-6.135,18.403-36.811,18.403-36.811   s5.784-5.835,6.134-10.736c-2.227-3.051-1.533-6.136-1.533-9.203c3.067-3.067,9.202,7.669,9.202,7.669h6.134   c0,0,2.398-6.11,7.668-9.203c3.067,0,3.067,9.203,3.067,9.203" />
	<path
   id="path48841"
   fill="#FFFFFF"
   stroke="#FFFFFF"
   stroke-width="0.326"
   stroke-linecap="round"
   stroke-linejoin="round"
   d="   M194.479,1887.938c0,0.848-0.687,1.534-1.534,1.534c-0.847,0-1.533-0.687-1.533-1.534c0-0.847,0.687-1.533,1.533-1.533   C193.793,1886.405,194.479,1887.091,194.479,1887.938z" />
	<path
   id="path48843"
   fill="#FFFFFF"
   stroke="#FFFFFF"
   stroke-width="0.326"
   stroke-linecap="round"
   stroke-linejoin="round"
   d="   M211.143,1858.03c-1.271,2.201-2.896,3.642-3.629,3.218s-0.298-2.551,0.973-4.752c1.271-2.2,2.895-3.642,3.629-3.218   C212.849,1853.702,212.414,1855.828,211.143,1858.03z" />
	<path
   id="path48845"
   fill="#FFFFFF"
   d="M239.713,1841.618l-0.921,3.375l1.688,0.307c9.513,1.464,19.396,6.854,26.302,19.92   c6.905,13.066,9.891,32.666,8.366,63.167l-0.153,1.533h5.367v-1.533c1.543-30.851-3.617-50.734-10.896-64.509   c-7.28-13.775-17.756-20.349-28.181-21.952L239.713,1841.618z" />
</g>
<g
   id="g60728"
   transform="translate(92.256853,-48.244112)">
	<path
   id="path60730"
   fill="#FFFFFF"
   d="M231.715,1837.495c37.531,4.161,54.641,26.148,53.007,94.791h-75.885   c-0.893-36.918,30.718-21.425,24.182-68.82" />
	<path
   id="path60732"
   fill="#FFFFFF"
   d="M241.852,1864.379c1.371,9.711-16.585,24.578-25.311,30.02   c-10.697,6.671-10.052,14.486-17.828,13.342c-4.119-5.332,0.434-5.903-3.565-3.335c-3.566,0-14.274,3.335-14.263-13.343   c0-6.671,18.894-40.025,18.894-40.025s5.295-6.346,5.703-11.675c-2.589-3.317-1.069-6.671-1.069-10.007   c3.566-3.335,12.662,8.339,12.662,8.339h4.273c0,0,3.681-6.644,9.808-10.007c3.565,0,3.565,10.007,3.565,10.007" />
	<path
   id="path60734"
   fill="#F2F2F2"
   d="M190.861,1888.159c0,0.902-0.732,1.634-1.634,1.634c-0.903,0-1.634-0.731-1.634-1.634   s0.731-1.635,1.634-1.635C190.129,1886.524,190.861,1887.256,190.861,1888.159z" />
	<path
   id="path60736"
   fill="#F2F2F2"
   d="M208.617,1856.289c-1.354,2.345-3.084,3.88-3.866,3.429s-0.318-2.719,1.036-5.063   c1.354-2.345,3.084-3.881,3.866-3.429C210.435,1851.677,209.971,1853.944,208.617,1856.289z" />
	<path
   id="path60738"
   fill="#FFFFFF"
   d="M240.049,1838.801l-0.98,3.596l1.798,0.327c10.136,1.56,20.667,7.303,28.025,21.226   c7.358,13.924,9.551,35.835,7.926,68.336l-0.164,0.027h5.72v-0.027c1.644-32.873-2.864-55.088-10.622-69.766   c-7.757-14.678-18.92-21.683-30.027-23.392L240.049,1838.801z" />
	<path
   id="path60740"
   stroke="#000000"
   stroke-linecap="round"
   d="M232.819,1840.391c32.206,3.067,50.609,24.541,49.076,88.959   h-70.547c0-27.607,30.673-19.939,24.538-64.418" />
	<path
   id="path60742"
   stroke="#000000"
   stroke-linecap="round"
   stroke-linejoin="round"
   d="M238.954,1864.932   c1.179,8.93-17.032,22.604-24.538,27.607c-9.202,6.135-8.647,13.322-15.336,12.271c-3.195-2.896,4.335-9.318,0-9.203   c-3.067,0,0.574,3.778-3.067,6.136c-3.067,0-12.279,3.067-12.269-12.271c0-6.135,18.403-36.811,18.403-36.811   s5.785-5.835,6.135-10.736c-2.227-3.051-1.534-6.136-1.534-9.203c3.067-3.067,9.201,7.669,9.201,7.669h6.135   c0,0,2.398-6.11,7.668-9.203c3.067,0,3.067,9.203,3.067,9.203" />
	<path
   id="path60744"
   fill="#FFFFFF"
   stroke="#FFFFFF"
   stroke-width="0.326"
   stroke-linecap="round"
   stroke-linejoin="round"
   d="   M194.479,1887.938c0,0.848-0.687,1.534-1.534,1.534c-0.847,0-1.534-0.687-1.534-1.534c0-0.847,0.687-1.533,1.534-1.533   C193.792,1886.405,194.479,1887.091,194.479,1887.938z" />
	<path
   id="path60746"
   fill="#FFFFFF"
   stroke="#FFFFFF"
   stroke-width="0.326"
   stroke-linecap="round"
   stroke-linejoin="round"
   d="   M211.143,1858.03c-1.271,2.201-2.896,3.642-3.629,3.218s-0.298-2.551,0.972-4.752c1.271-2.2,2.896-3.642,3.629-3.218   S212.414,1855.828,211.143,1858.03z" />
	<path
   id="path60748"
   fill="#FFFFFF"
   d="M239.712,1841.618l-0.92,3.375l1.688,0.307c9.513,1.464,19.396,6.854,26.301,19.92   c6.906,13.066,9.892,32.666,8.367,63.167l-0.153,1.533h5.367v-1.533c1.542-30.851-3.617-50.734-10.897-64.509   c-7.279-13.775-17.756-20.349-28.18-21.952L239.712,1841.618z" />
</g>
<g
   id="g63721"
   transform="translate(578.54062,1709.2065)">
	<g
   id="g60798"
   transform="matrix(3.4156897,0,0,3.3289941,-1005.3432,-2662.945)">
		<path
   id="path60800"
   fill="#FFFFFF"
   stroke="#FFFFFF"
   stroke-width="0.4448"
   stroke-linejoin="round"
   d="M250.786,848.362    c2.471-1.234,10.115,0.128,13.5-2.303c3.385,2.431,11.125,0.964,13.352,2.303c2.202,1.325,1.942,0.903,2.556,2.589    c-0.677,0.972-1.054,1.593-2.408,1.107c-3.385-0.972-10.115,0.458-13.5-1c-3.385,1.458-10.115,0.028-13.5,1    c-1.354,0.486-1.731-0.21-2.408-1.183C249.731,848.93,248.435,849.535,250.786,848.362z" />
		<path
   id="path60802"
   fill="#FFFFFF"
   stroke="#FFFFFF"
   stroke-width="0.4448"
   stroke-linejoin="round"
   d="M256.786,845.557    c2.5,2.5,12.5,2.5,15,0c0.5-1.5,0-2,0-2c0-2.5-2.063-4-2.063-4c5.5-1.5,5.563-11.5-5.438-15.5c-11,4-10.722,14.152-5.222,15.652    c0,0-2.352,0.969-2.352,3.469C256.712,843.178,256.286,844.057,256.786,845.557z" />
		<path
   id="path60804"
   fill="#FFFFFF"
   stroke="#FFFFFF"
   stroke-width="0.3651"
   stroke-linejoin="round"
   d="M267.311,822.842    c0,1.636-1.402,2.962-3.132,2.962c-1.73,0-3.132-1.326-3.132-2.962c0-1.636,1.402-2.962,3.132-2.962    C265.908,819.88,267.311,821.206,267.311,822.842z" />
		<path
   id="path60806"
   fill="#FF8BFF"
   stroke="#FF78FF"
   stroke-width="0.4448"
   stroke-linecap="round"
   d="M259.286,839.557h10" />
		<path
   id="path60810"
   fill="#FF8BFF"
   stroke="#FF78FF"
   stroke-width="0.4448"
   stroke-linecap="round"
   d="M264.286,829.057v5" />
		<path
   id="path60812"
   fill="#FF8BFF"
   stroke="#FF78FF"
   stroke-width="0.4448"
   stroke-linecap="round"
   d="M261.786,831.557h5" />
	</g>
	<g
   id="g60782"
   transform="matrix(3.067229,0,0,3.067558,-913.48194,-2443.602)">
		<path
   id="path60784"
   stroke="#000000"
   stroke-width="0.489"
   stroke-linejoin="round"
   d="M250.786,849.557    c3.385-0.973,10.114,0.431,13.5-2c3.385,2.431,10.115,1.028,13.5,2c0,0,1.646,0.542,3,2c-0.677,0.972-1.646,0.986-3,0.5    c-3.385-0.973-10.115,0.458-13.5-1c-3.385,1.459-10.115,0.028-13.5,1c-1.354,0.486-2.323,0.472-3-0.5    C249.14,849.612,250.786,849.557,250.786,849.557z" />
		<path
   id="path60786"
   stroke="#000000"
   stroke-width="0.489"
   stroke-linejoin="round"
   d="M256.786,845.557c2.5,2.5,12.5,2.5,15,0    c0.5-1.5,0-2,0-2c0-2.5-2.5-4-2.5-4c5.5-1.5,6-11.5-5-15.5c-11,4-10.5,14-5,15.5c0,0-2.5,1.5-2.5,4    C256.786,843.557,256.286,844.057,256.786,845.557z" />
		<path
   id="path60788"
   stroke="#000000"
   stroke-width="0.489"
   stroke-linejoin="round"
   d="M266.786,821.557    c0,1.381-1.119,2.5-2.5,2.5c-1.381,0-2.5-1.119-2.5-2.5c0-1.381,1.119-2.5,2.5-2.5    C265.666,819.057,266.786,820.176,266.786,821.557z" />
		<path
   id="path60790"
   fill="none"
   stroke="#FFFFFF"
   stroke-width="0.489"
   stroke-linecap="round"
   d="M259.286,839.557h10" />
		<path
   id="path60792"
   fill="none"
   stroke="#FFFFFF"
   stroke-width="0.489"
   stroke-linecap="round"
   d="M256.786,843.557h15" />
		<path
   id="path60794"
   fill="none"
   stroke="#FFFFFF"
   stroke-width="0.489"
   stroke-linecap="round"
   d="M264.286,829.057v5" />
		<path
   id="path60796"
   fill="none"
   stroke="#FFFFFF"
   stroke-width="0.489"
   stroke-linecap="round"
   d="M261.786,831.557h5" />
	</g>
</g>
<g
   id="g63818"
   transform="translate(1030.9448,1709.2065)">
	<g
   id="g63820"
   transform="matrix(3.4156897,0,0,3.3289941,-1005.3432,-2662.945)">
		<path
   id="path63822"
   fill="#FFFFFF"
   stroke="#FFFFFF"
   stroke-width="0.4448"
   stroke-linejoin="round"
   d="M250.786,848.362    c2.471-1.234,10.115,0.128,13.5-2.303c3.385,2.431,11.125,0.964,13.352,2.303c2.202,1.325,1.942,0.903,2.556,2.589    c-0.677,0.972-1.054,1.593-2.408,1.107c-3.385-0.972-10.115,0.458-13.5-1c-3.385,1.458-10.115,0.028-13.5,1    c-1.354,0.486-1.731-0.21-2.408-1.183C249.731,848.93,248.435,849.535,250.786,848.362z" />
		<path
   id="path63824"
   fill="#FFFFFF"
   stroke="#FFFFFF"
   stroke-width="0.4448"
   stroke-linejoin="round"
   d="M256.786,845.557    c2.5,2.5,12.5,2.5,15,0c0.5-1.5,0-2,0-2c0-2.5-2.063-4-2.063-4c5.5-1.5,5.563-11.5-5.438-15.5c-11,4-10.722,14.152-5.222,15.652    c0,0-2.352,0.969-2.352,3.469C256.712,843.178,256.286,844.057,256.786,845.557z" />
		<path
   id="path63826"
   fill="#FFFFFF"
   stroke="#FFFFFF"
   stroke-width="0.3651"
   stroke-linejoin="round"
   d="M267.311,822.842    c0,1.636-1.402,2.962-3.132,2.962c-1.73,0-3.132-1.326-3.132-2.962c0-1.636,1.402-2.962,3.132-2.962    C265.908,819.88,267.311,821.206,267.311,822.842z" />
		<path
   id="path63828"
   fill="#FF8BFF"
   stroke="#FF78FF"
   stroke-width="0.4448"
   stroke-linecap="round"
   d="M259.286,839.557h10" />
		<path
   id="path63830"
   fill="#FF8BFF"
   stroke="#FF78FF"
   stroke-width="0.4448"
   stroke-linecap="round"
   d="M264.286,829.057v5" />
		<path
   id="path63832"
   fill="#FF8BFF"
   stroke="#FF78FF"
   stroke-width="0.4448"
   stroke-linecap="round"
   d="M261.786,831.557h5" />
	</g>
	<g
   id="g63834"
   transform="matrix(3.067229,0,0,3.067558,-913.48194,-2443.602)">
		<path
   id="path63836"
   stroke="#000000"
   stroke-width="0.489"
   stroke-linejoin="round"
   d="M250.785,849.557    c3.385-0.973,10.115,0.431,13.5-2c3.385,2.431,10.115,1.028,13.5,2c0,0,1.646,0.542,3,2c-0.677,0.972-1.646,0.986-3,0.5    c-3.385-0.973-10.115,0.458-13.5-1c-3.385,1.459-10.115,0.028-13.5,1c-1.354,0.486-2.323,0.472-3-0.5    C249.14,849.612,250.785,849.557,250.785,849.557z" />
		<path
   id="path63838"
   stroke="#000000"
   stroke-width="0.489"
   stroke-linejoin="round"
   d="M256.785,845.557c2.5,2.5,12.5,2.5,15,0    c0.5-1.5,0-2,0-2c0-2.5-2.5-4-2.5-4c5.5-1.5,6-11.5-5-15.5c-11,4-10.5,14-5,15.5c0,0-2.5,1.5-2.5,4    C256.785,843.557,256.286,844.057,256.785,845.557z" />
		<path
   id="path63840"
   stroke="#000000"
   stroke-width="0.489"
   stroke-linejoin="round"
   d="M266.786,821.557    c0,1.381-1.119,2.5-2.5,2.5c-1.381,0-2.5-1.119-2.5-2.5c0-1.381,1.119-2.5,2.5-2.5    C265.666,819.057,266.786,820.176,266.786,821.557z" />
		<path
   id="path63842"
   fill="none"
   stroke="#FFFFFF"
   stroke-width="0.489"
   stroke-linecap="round"
   d="M259.286,839.557h10" />
		<path
   id="path63844"
   fill="none"
   stroke="#FFFFFF"
   stroke-width="0.489"
   stroke-linecap="round"
   d="M256.785,843.557h15" />
		<path
   id="path63846"
   fill="none"
   stroke="#FFFFFF"
   stroke-width="0.489"
   stroke-linecap="round"
   d="M264.286,829.057v5" />
		<path
   id="path63848"
   fill="none"
   stroke="#FFFFFF"
   stroke-width="0.489"
   stroke-linecap="round"
   d="M261.786,831.557h5" />
	</g>
</g>
<g
   id="g67023"
   transform="translate(-775.20678,1464.7568)">
	<path
   id="path67025"
   d="   M1520.337,330.894c0,4.852-3.932,8.784-8.782,8.784s-8.783-3.933-8.783-8.784s3.933-8.784,8.783-8.784   S1520.337,326.042,1520.337,330.894z"
   stroke-linejoin="round"
   stroke-linecap="round"
   stroke-width="0.2277"
   stroke="#FFFFFF"
   fill="#FFFFFF" />
	<path
   id="path67027"
   d="   M1545.162,319.879c0,4.852-3.932,8.784-8.782,8.784s-8.783-3.933-8.783-8.784c0-4.851,3.933-8.784,8.783-8.784   S1545.162,315.029,1545.162,319.879z"
   stroke-linejoin="round"
   stroke-linecap="round"
   stroke-width="0.2277"
   stroke="#FFFFFF"
   fill="#FFFFFF" />
	<path
   id="path67029"
   d="   M1571.173,317.102c0,4.851-3.932,8.783-8.783,8.783c-4.851,0-8.782-3.933-8.782-8.783c0-4.852,3.932-8.784,8.782-8.784   C1567.242,308.318,1571.173,312.25,1571.173,317.102z"
   stroke-linejoin="round"
   stroke-linecap="round"
   stroke-width="0.2277"
   stroke="#FFFFFF"
   fill="#FFFFFF" />
	<path
   id="path67031"
   d="   M1597.437,322.152c0,4.852-3.932,8.784-8.782,8.784s-8.783-3.933-8.783-8.784c0-4.851,3.933-8.783,8.783-8.783   S1597.437,317.301,1597.437,322.152z"
   stroke-linejoin="round"
   stroke-linecap="round"
   stroke-width="0.2277"
   stroke="#FFFFFF"
   fill="#FFFFFF" />
	<path
   id="path67033"
   d="M1516.711,371.167   c29.278-5.168,70.567-5.168,91.233,0l5.627-44.874l-22.092,32.843l-1.01-42.42l-18.188,43.476l-10.08-49.4l-9.829,48.643   l-18.187-43.683l-0.253,46.162l-22.091-33.6L1516.711,371.167z"
   stroke-linejoin="round"
   stroke-width="1"
   stroke="#FFFFFF"
   fill="#FFFFFF" />
	<path
   id="path67035"
   d="M1516.711,371.167   c0,6.89,4.157,7.647,7.602,14.537c3.444,5.167,4.454,2.688,2.732,11.299c-5.167,3.445-5.167,8.612-5.167,8.612   c-5.167,5.167,1.723,10.612,1.723,10.612c22.389,3.445,54.813,3.445,77.203,0c0,0,5.166-5.445,0-10.612   c0,0,1.722-5.167-3.445-8.612c-1.722-8.611,0.299-6.89,3.743-12.057c3.444-6.89,6.591-6.89,6.591-13.779   C1578.415,365.999,1545.99,365.999,1516.711,371.167z"
   stroke-linejoin="round"
   stroke-width="1"
   stroke="#FFFFFF"
   fill="#FFFFFF" />
	<path
   id="path67037"
   d="   M1621.933,330.739c0,4.852-3.932,8.784-8.782,8.784s-8.783-3.933-8.783-8.784c0-4.851,3.933-8.784,8.783-8.784   S1621.933,325.888,1621.933,330.739z"
   stroke-linejoin="round"
   stroke-linecap="round"
   stroke-width="0.2277"
   stroke="#FFFFFF"
   fill="#FFFFFF" />
	<g
   id="g67039"
   transform="matrix(3.067229,0,0,3.067558,-1332.787,-2735.3764)">
		<path
   id="path67041"
   d="M929.437,999.625    c0,1.105-0.895,2-2,2c-1.104,0-2-0.895-2-2s0.895-2,2-2C928.542,997.625,929.437,998.52,929.437,999.625z"
   stroke-linejoin="round"
   stroke-linecap="round"
   stroke-width="0.326"
   stroke="#000000" />
		<path
   id="path67043"
   d="M945.937,995.125    c0,1.104-0.895,2-2,2c-1.104,0-2-0.896-2-2c0-1.105,0.895-2,2-2C945.042,993.125,945.937,994.021,945.937,995.125z"
   stroke-linejoin="round"
   stroke-linecap="round"
   stroke-width="0.326"
   stroke="#000000" />
		<path
   id="path67045"
   d="M962.437,999.625    c0,1.105-0.896,2-2,2s-2-0.895-2-2s0.895-2,2-2S962.437,998.52,962.437,999.625z"
   stroke-linejoin="round"
   stroke-linecap="round"
   stroke-width="0.326"
   stroke="#000000" />
		<path
   id="path67047"
   d="M937.437,996.125    c0,1.104-0.896,2-2,2c-1.104,0-2-0.896-2-2c0-1.105,0.896-2,2-2C936.542,994.125,937.437,995.02,937.437,996.125z"
   stroke-linejoin="round"
   stroke-linecap="round"
   stroke-width="0.326"
   stroke="#000000" />
		<path
   id="path67049"
   d="M954.437,996.625    c0,1.104-0.895,2-2,2c-1.104,0-2-0.896-2-2c0-1.105,0.895-2,2-2C953.542,994.625,954.437,995.521,954.437,996.625z"
   stroke-linejoin="round"
   stroke-linecap="round"
   stroke-width="0.326"
   stroke="#000000" />
		<path
   id="path67051"
   d="M930.437,1013.625c8.5-1.5,21-1.5,27,0    l2-12l-7,11v-14l-5.5,13.5l-3-15l-3,15l-5.5-14v14.5l-7-11L930.437,1013.625z"
   stroke-linejoin="round"
   stroke-width="0.326"
   stroke="#000000" />
		<path
   id="path67053"
   d="M930.437,1013.625c0,2,1.5,2,2.5,4    c1,1.5,1,1,0.5,3.5c-1.5,1-1.5,2.5-1.5,2.5c-1.5,1.5,0.5,2.5,0.5,2.5c6.5,1,16.5,1,23,0c0,0,1.5-1,0-2.5c0,0,0.5-1.5-1-2.5    c-0.5-2.5-0.5-2,0.5-3.5c1-2,2.5-2,2.5-4C948.938,1012.125,938.937,1012.125,930.437,1013.625z"
   stroke-linejoin="round"
   stroke-width="0.326"
   stroke="#000000" />
		<path
   id="path67055"
   d="    M932.937,1017.625c3.5-1,18.5-1,22,0"
   stroke-linejoin="round"
   stroke-linecap="round"
   stroke-width="0.326"
   stroke="#FFFFFF"
   fill="none" />
		<path
   id="path67057"
   d="    M933.437,1021.125c6-1,15-1,21,0"
   stroke-linejoin="round"
   stroke-linecap="round"
   stroke-width="0.326"
   stroke="#FFFFFF"
   fill="none" />
		<path
   id="path67059"
   d="    M931.937,1023.625c5-1,18.5-1,23.5,0"
   stroke-linejoin="round"
   stroke-linecap="round"
   stroke-width="0.326"
   stroke="#FFFFFF"
   fill="none" />
	</g>
</g>
<g
   id="g70004"
   transform="translate(-674.44801,1349.7057)">
	<g
   id="g67079"
   transform="matrix(3.677456,0,0,3.6776632,-684.87287,-2670.1206)">
		<path
   id="path67081"
   fill="#FFFFFF"
   stroke="#FFFFFF"
   stroke-width="1.6315"
   stroke-linecap="round"
   d="M538.536,847.111v-5.625" />
		<path
   id="path67083"
   fill="#FFFFFF"
   stroke="#FFFFFF"
   stroke-width="0.4079"
   d="M538.536,858.649c0,0,4.775-7.569,3.275-10.569    c0,0-1.275-2.431-3.275-2.431c-2,0-3.275,2.569-3.275,2.569C533.762,851.217,538.536,858.649,538.536,858.649" />
		<path
   id="path67085"
   fill="#FFFFFF"
   stroke="#FFFFFF"
   stroke-width="0.4079"
   stroke-linecap="round"
   stroke-linejoin="round"
   d="    M527.88,868.542c5.5,3.5,15.157,3.432,20.657-0.068l-0.069-6.313c0,0,7.352-3.607,4.352-9.607c-4-6.5-13.5-3.5-16,4l1.717,1.92    v-3.5c-3.637-6.127-10.734-8.44-14.421-2.833c-3,6,3.627,10,3.627,10L527.88,868.542z" />
		<path
   id="path67087"
   fill="#FFFFFF"
   stroke="#FFFFFF"
   stroke-width="1.6315"
   stroke-linecap="round"
   d="M536.036,843.486h5" />
	</g>
	<g
   id="g67061"
   transform="matrix(3.067229,0,0,3.067558,-329.09607,-2142.8556)">
		<path
   id="path67063"
   fill="none"
   stroke="#000000"
   stroke-width="0.489"
   stroke-linecap="round"
   d="M529.713,843.098v-5.625" />
		<path
   id="path67065"
   stroke="#000000"
   stroke-width="0.489"
   d="M529.713,856.473c0,0,4.5-7.5,3-10.5c0,0-1-2.5-3-2.5    c-2,0-3,2.5-3,2.5C525.213,848.973,529.713,856.473,529.713,856.473" />
		<path
   id="path67067"
   stroke="#000000"
   stroke-width="0.489"
   stroke-linecap="round"
   stroke-linejoin="round"
   d="M518.713,868.473    c5.5,3.5,15.5,3.5,21,0v-7c0,0,9-4.5,6-10.5c-4-6.5-13.5-3.5-16,4v3.5v-3.5c-3.5-7.5-13-10.5-16-4c-3,6,5,10,5,10V868.473z" />
		<path
   id="path67069"
   fill="none"
   stroke="#000000"
   stroke-width="0.489"
   stroke-linecap="round"
   d="M527.213,839.473h5" />
		<path
   id="path67071"
   fill="none"
   stroke="#FFFFFF"
   stroke-width="0.489"
   stroke-linecap="round"
   d="M518.713,860.973    c5.5-2.5,15.5-2.5,21,0.5" />
		<path
   id="path67073"
   fill="none"
   stroke="#FFFFFF"
   stroke-width="0.489"
   stroke-linecap="round"
   stroke-linejoin="round"
   d="    M518.713,868.473c5.5-2.5,15.5-2.5,21,0" />
		<path
   id="path67075"
   fill="none"
   stroke="#FFFFFF"
   stroke-width="0.489"
   stroke-linecap="round"
   stroke-linejoin="round"
   d="    M518.713,864.973c5.5-2,15.5-2,21,0" />
		<path
   id="path67077"
   fill="none"
   stroke="#FFFFFF"
   stroke-width="0.489"
   stroke-linecap="round"
   stroke-linejoin="round"
   d="    M539.213,860.973c0,0,8.5-4,6.026-9.654c-3.879-5.85-13.026-1.846-15.526,4.654l0.012,2.097l-0.012-2.097    c-2.5-6.5-12.593-10.503-15.503-4.654c-2.497,5.654,4.848,9,4.848,9" />
	</g>
</g>
<g
   id="Q"
   transform="translate(-56.553323,-1775.3189)"
   inkscape:label="Q">
	<path
   id="path80248"
   fill="#FFFFFF"
   stroke="#FFFFFF"
   stroke-width="1"
   stroke-linejoin="round"
   d="M788.638,1850.392   c29.278-5.167,72.082-3.021,92.749,2.146c0,0,10.279-44.535,6.384-50.369c-3.895-5.833-21.965,27.034-21.965,27.034l-3.409-42.419   l-16.167,39.813c0,0-5.766-35.353-11.217-35.131c-5.451,0.221-10.586,36.016-10.586,36.016s-8.621-33.791-15.662-33.455   c-7.167,0.336-4.419,35.809-4.419,35.809s-16.775-31.037-20.702-25.898S788.638,1850.392,788.638,1850.392z" />
	<path
   id="path80250"
   fill="#FFFFFF"
   stroke="#FFFFFF"
   stroke-width="1"
   stroke-linejoin="round"
   d="M787.502,1845.211   c0,7.295,1.277,11.128,7.329,17.287c1.759,2.693,4.383,3.224,2.24,8.555c-5.669,3.647-5.795,11.139-5.795,11.139   c-1.754,5.219,2.016,11.11,2.016,11.11c24.564,3.647,56.48,3.66,82.179,0.379c0,0,3.396-4.502,2.146-9.974   c0,0,0.248-8.375-4.158-12.149c-1.006-6.72,1.085-6.411,3.728-10.114c4.031-6.159,5.337-7.295,5.337-14.59   C850.401,1841.382,819.624,1839.74,787.502,1845.211z" />
	<path
   id="path80252"
   fill="#FFFFFF"
   stroke="#FFFFFF"
   stroke-width="0.1896"
   stroke-linecap="round"
   stroke-linejoin="round"
   d="   M896.259,1806.807c0,5.827-4.724,10.551-10.551,10.551c-5.826,0-10.55-4.724-10.55-10.551c0-5.828,4.724-10.552,10.55-10.552   C891.535,1796.255,896.259,1800.979,896.259,1806.807z" />
	<path
   id="path80254"
   fill="#FFFFFF"
   stroke="#FFFFFF"
   stroke-width="0.1896"
   stroke-linecap="round"
   stroke-linejoin="round"
   d="   M794.953,1806.698c0,5.828-4.724,10.552-10.55,10.552c-5.827,0-10.551-4.724-10.551-10.552s4.724-10.551,10.551-10.551   C790.23,1796.146,794.953,1800.87,794.953,1806.698z" />
	<path
   id="path80256"
   fill="#FFFFFF"
   stroke="#000000"
   stroke-width="1.63"
   stroke-linecap="round"
   stroke-linejoin="round"
   d="   M790.694,1806.868c0,3.388-2.746,6.135-6.135,6.135c-3.388,0-6.134-2.747-6.134-6.135c0-3.389,2.746-6.135,6.134-6.135   C787.948,1800.733,790.694,1803.48,790.694,1806.868z" />
	<path
   id="path80258"
   fill="#FFFFFF"
   stroke="#FFFFFF"
   stroke-width="0.1896"
   stroke-linecap="round"
   stroke-linejoin="round"
   d="   M845.587,1792.808c0,5.828-4.723,10.552-10.55,10.552s-10.551-4.724-10.551-10.552s4.724-10.551,10.551-10.551   S845.587,1786.98,845.587,1792.808z" />
	<path
   id="path80260"
   fill="#FFFFFF"
   stroke="#000000"
   stroke-width="1.63"
   stroke-linecap="round"
   stroke-linejoin="round"
   d="   M841.304,1793.064c0,3.388-2.747,6.135-6.135,6.135s-6.135-2.747-6.135-6.135s2.747-6.135,6.135-6.135   S841.304,1789.676,841.304,1793.064z" />
	<path
   id="path80262"
   fill="#FFFFFF"
   stroke="#000000"
   stroke-width="1.63"
   stroke-linecap="round"
   stroke-linejoin="round"
   d="   M891.913,1806.868c0,3.388-2.747,6.135-6.135,6.135s-6.135-2.747-6.135-6.135c0-3.389,2.747-6.135,6.135-6.135   S891.913,1803.48,891.913,1806.868z" />
	<path
   id="path80264"
   fill="#FFFFFF"
   stroke="#FFFFFF"
   stroke-width="0.1896"
   stroke-linecap="round"
   stroke-linejoin="round"
   d="   M819.576,1796.091c0,5.827-4.724,10.551-10.551,10.551s-10.55-4.724-10.55-10.551c0-5.828,4.723-10.552,10.55-10.552   S819.576,1790.263,819.576,1796.091z" />
	<path
   id="path80266"
   fill="#FFFFFF"
   stroke="#000000"
   stroke-width="1.63"
   stroke-linecap="round"
   stroke-linejoin="round"
   d="   M815.233,1796.132c0,3.389-2.747,6.135-6.135,6.135s-6.135-2.747-6.135-6.135c0-3.388,2.747-6.135,6.135-6.135   S815.233,1792.743,815.233,1796.132z" />
	<path
   id="path80268"
   fill="#FFFFFF"
   stroke="#FFFFFF"
   stroke-width="0.1896"
   stroke-linecap="round"
   stroke-linejoin="round"
   d="   M871.852,1797.606c0,5.827-4.724,10.551-10.551,10.551s-10.55-4.724-10.55-10.551c0-5.828,4.723-10.552,10.55-10.552   S871.852,1791.779,871.852,1797.606z" />
	<path
   id="path80270"
   fill="#FFFFFF"
   stroke="#000000"
   stroke-width="1.63"
   stroke-linecap="round"
   stroke-linejoin="round"
   d="   M867.375,1797.665c0,3.389-2.746,6.135-6.135,6.135c-3.388,0-6.134-2.747-6.134-6.135c0-3.388,2.746-6.135,6.134-6.135   C864.629,1791.531,867.375,1794.277,867.375,1797.665z" />
	<path
   id="path80272"
   fill="#FFFFFF"
   stroke="#000000"
   stroke-width="5"
   stroke-linejoin="round"
   d="M793.762,1849.814   c26.071-4.602,64.411-4.602,82.815,0l6.134-36.811l-21.471,33.743v-42.946l-16.869,41.412l-9.202-46.013l-9.201,46.013   l-16.87-42.946v44.479l-21.471-33.743L793.762,1849.814z" />
	<path
   id="path80274"
   fill="#FFFFFF"
   stroke="#000000"
   stroke-width="5"
   stroke-linejoin="round"
   d="M793.762,1849.814   c0,6.135,4.601,6.135,7.668,12.27c3.067,4.601,3.067,3.068,1.533,10.737c-4.601,3.067-4.601,7.668-4.601,7.668   c-4.601,4.602,1.533,7.669,1.533,7.669c19.938,3.068,50.609,3.068,70.547,0c0,0,4.601-3.067,0-7.669c0,0,1.533-4.601-3.067-7.668   c-1.533-7.669-1.533-6.136,1.533-10.737c3.067-6.135,7.669-6.135,7.669-12.27C850.505,1845.213,819.833,1845.213,793.762,1849.814z   " />
	<path
   id="path80276"
   fill="none"
   stroke="#000000"
   stroke-width="5"
   stroke-linecap="round"
   stroke-linejoin="round"
   d="   M801.43,1862.084c10.735-3.067,56.743-3.067,67.479,0" />
	<path
   id="path80278"
   fill="none"
   stroke="#000000"
   stroke-width="5"
   stroke-linecap="round"
   stroke-linejoin="round"
   d="   M802.963,1872.821c18.403-3.068,46.009-3.068,64.412,0" />
	<path
   id="path80280"
   fill="none"
   stroke="#000000"
   stroke-width="5"
   stroke-linecap="round"
   stroke-linejoin="round"
   d="   M798.362,1880.49c15.336-3.067,56.744-3.067,72.08,0" />
</g>
<g
   id="K"
   transform="translate(151.63553,-1758.0705)"
   inkscape:label="K">
	<path
   id="path80321"
   fill="none"
   stroke="#FFFFFF"
   stroke-width="8"
   stroke-linecap="round"
   d="M469.064,1790.063v-16.385" />
	<path
   id="path80323"
   fill="none"
   stroke="#FFFFFF"
   stroke-width="8"
   stroke-linecap="round"
   d="M461.27,1779.681h15.336" />
	<path
   id="path80300"
   fill="none"
   stroke="#000000"
   stroke-width="5"
   stroke-linecap="round"
   d="M469.217,1790.951v-17.255" />
	<path
   id="path80302"
   fill="#FFFFFF"
   stroke="#000000"
   stroke-width="5"
   d="M469.217,1831.98c0,0,13.803-23.007,9.202-32.209   c0,0-3.067-7.669-9.202-7.669c-6.134,0-9.201,7.669-9.201,7.669C455.416,1808.973,469.217,1831.98,469.217,1831.98" />
	<path
   id="path80304"
   fill="#FFFFFF"
   stroke="#000000"
   stroke-width="5"
   stroke-linecap="round"
   stroke-linejoin="round"
   d="   M435.478,1868.791c16.87,10.736,47.542,10.736,64.412,0v-21.473c0,0,27.605-13.804,18.403-32.209   c-12.269-19.939-41.407-10.736-49.076,12.27v10.736v-10.736c-10.735-23.006-39.874-32.209-49.075-12.27   c-9.202,18.405,15.336,30.675,15.336,30.675V1868.791z" />
	<path
   id="path80306"
   fill="none"
   stroke="#000000"
   stroke-width="5"
   stroke-linecap="round"
   d="M461.55,1779.832h15.337" />
	<path
   id="path80308"
   fill="none"
   stroke="#000000"
   stroke-width="5"
   stroke-linecap="round"
   d="M435.478,1845.784   c16.87-7.669,47.542-7.669,64.412,1.534" />
	<path
   id="path80310"
   fill="none"
   stroke="#000000"
   stroke-width="5"
   stroke-linecap="round"
   stroke-linejoin="round"
   d="   M435.478,1868.791c16.87-7.669,47.542-7.669,64.412,0" />
	<path
   id="path80312"
   fill="none"
   stroke="#000000"
   stroke-width="5"
   stroke-linecap="round"
   stroke-linejoin="round"
   d="   M435.478,1858.054c16.87-6.135,47.542-6.135,64.412,0" />
</g>
</svg>