<?xml version="1.0" encoding="UTF-8" standalone="no"?>
<!-- Generator: Adobe Illustrator 14.0.0, SVG Export Plug-In . SVG Version: 6.00 Build 43363)  -->

<svg
   xmlns:dc="http://purl.org/dc/elements/1.1/"
   xmlns:cc="http://creativecommons.org/ns#"
   xmlns:rdf="http://www.w3.org/1999/02/22-rdf-syntax-ns#"
   xmlns:svg="http://www.w3.org/2000/svg"
   xmlns="http://www.w3.org/2000/svg"
   xmlns:sodipodi="http://sodipodi.sourceforge.net/DTD/sodipodi-0.dtd"
   xmlns:inkscape="http://www.inkscape.org/namespaces/inkscape"
   version="1.1"
   id="svg2"
   x="0px"
   y="0px"
   width="1400px"
   height="1900px"
   viewBox="0 0 1400 1900"
   enable-background="new 0 0 1400 1900"
   xml:space="preserve"
   inkscape:version="0.47 r22583"
   sodipodi:docname="chess.svg"><metadata
   id="metadata299"><rdf:RDF><cc:Work
       rdf:about=""><dc:format>image/svg+xml</dc:format><dc:type
         rdf:resource="http://purl.org/dc/dcmitype/StillImage" /></cc:Work></rdf:RDF></metadata><defs
   id="defs297" /><sodipodi:namedview
   pagecolor="#ffffff"
   bordercolor="#666666"
   borderopacity="1"
   objecttolerance="10"
   gridtolerance="10"
   guidetolerance="10"
   inkscape:pageopacity="0"
   inkscape:pageshadow="2"
   inkscape:window-width="1280"
   inkscape:window-height="939"
   id="namedview295"
   showgrid="false"
   inkscape:zoom="0.28947369"
   inkscape:cx="1379.4919"
   inkscape:cy="929.56437"
   inkscape:window-x="-4"
   inkscape:window-y="28"
   inkscape:window-maximized="1"
   inkscape:current-layer="svg2" />

<path
   id="p"
   d="m 153.97836,272.12073 c -6.772,0 -12.269,5.497 -12.269,12.271 0,2.715 0.901,5.253 2.396,7.285 -5.987,3.442 -10.064,9.858 -10.064,17.255 0,6.24 2.89,11.777 7.381,15.435 -9.199,3.245 -22.717,17.015 -22.717,41.315 h 70.546 c 0,-24.301 -13.518,-38.07 -22.717,-41.315 4.491,-3.657 7.38,-9.194 7.38,-15.435 0,-7.396 -4.077,-13.813 -10.064,-17.255 1.495,-2.032 2.396,-4.57 2.396,-7.285 10e-4,-6.774 -5.495,-12.271 -12.268,-12.271 z"
   inkscape:label="p"
   style="stroke:#ffffff;stroke-width:5;stroke-linecap:round" />

<g
   id="B"
   transform="matrix(3.067229,0,0,3.067558,-405.02143,-3056.8514)"
   inkscape:label="B">
	<path
   id="path2996"
   fill="#FFFFFF"
   stroke="#000000"
   stroke-width="1.63"
   stroke-linejoin="round"
   d="M270.786,1032.414   c3.385-0.972,10.115,0.431,13.5-2c3.385,2.431,10.115,1.028,13.5,2c0,0,1.646,0.542,3,2c-0.677,0.972-1.646,0.986-3,0.5   c-3.385-0.972-10.115,0.458-13.5-1c-3.385,1.458-10.115,0.028-13.5,1c-1.354,0.486-2.323,0.472-3-0.5   C269.14,1032.47,270.786,1032.414,270.786,1032.414z" />
	<path
   id="path2998"
   fill="#FFFFFF"
   stroke="#000000"
   stroke-width="1.63"
   stroke-linejoin="round"
   d="M276.786,1028.414   c2.5,2.5,12.5,2.5,15,0c0.5-1.5,0-2,0-2c0-2.5-2.5-4-2.5-4c5.5-1.5,6-11.5-5-15.5c-11,4-10.5,14-5,15.5c0,0-2.5,1.5-2.5,4   C276.786,1026.415,276.286,1026.914,276.786,1028.414z" />
	<path
   id="path3000"
   fill="#FFFFFF"
   stroke="#000000"
   stroke-width="1.63"
   stroke-linejoin="round"
   d="M286.786,1004.414   c0,1.381-1.119,2.5-2.5,2.5c-1.381,0-2.5-1.119-2.5-2.5s1.119-2.5,2.5-2.5C285.666,1001.914,286.786,1003.034,286.786,1004.414z" />
	<path
   id="path3002"
   fill="none"
   stroke="#000000"
   stroke-width="1.63"
   d="M279.286,1022.414h10" />
	<path
   id="path3004"
   fill="none"
   stroke="#000000"
   stroke-width="1.63"
   d="M276.786,1026.415h15" />
	<path
   id="path3006"
   fill="none"
   stroke="#000000"
   stroke-width="1.63"
   stroke-linecap="round"
   d="M284.286,1011.914v5" />
	<path
   id="path3008"
   fill="none"
   stroke="#000000"
   stroke-width="1.63"
   stroke-linecap="round"
   d="M281.786,1014.414h5" />
</g>
<g
   id="R"
   transform="matrix(3.067229,0,0,3.067558,-737.58485,-3349.7595)"
   inkscape:label="R">
	<path
   id="path3119"
   d="M280.786,1130.715h27v-3h-27   V1130.715z"
   stroke-linejoin="round"
   stroke-width="1.63"
   stroke="#000000"
   fill="#FFFFFF" />
	<path
   id="path3121"
   d="M283.786,1127.715v-4h21v4   H283.786z"
   stroke-linejoin="round"
   stroke-width="1.63"
   stroke="#000000"
   fill="#FFFFFF" />
	<path
   id="path3129"
   d="M282.786,1105.714v-5h4v2h5   v-2h5v2h5v-2h4v5"
   stroke-linejoin="round"
   stroke-width="1.63"
   stroke="#000000"
   fill="#FFFFFF" />
	<path
   id="path3127"
   d="   M305.786,1105.714l-3,3h-17l-3-3"
   stroke-linejoin="round"
   stroke-linecap="round"
   stroke-width="1.63"
   stroke="#000000"
   fill="#FFFFFF" />
	<path
   id="path3125"
   d="M302.786,1108.714v12.5h-17v-12.5"
   stroke-width="1.63"
   stroke="#000000"
   fill="#FFFFFF" />
	<path
   id="path3123"
   d="   M302.786,1121.215l1.5,2.5h-20l1.5-2.5"
   stroke-linejoin="round"
   stroke-linecap="round"
   stroke-width="1.63"
   stroke="#000000"
   fill="#FFFFFF" />
	<path
   id="path5175"
   d="M282.786,1105.714h23"
   stroke-linecap="round"
   stroke-width="1.63"
   stroke="#000000"
   fill="none" />
</g>








<path
   id="P"
   fill="#FFFFFF"
   stroke="#000000"
   stroke-width="5"
   stroke-linecap="round"
   d="M164.71,139.52  c-6.772,0-12.269,5.497-12.269,12.27c0,2.715,0.901,5.253,2.396,7.286c-5.987,3.442-10.064,9.857-10.064,17.255  c0,6.239,2.889,11.777,7.38,15.434c-9.199,3.245-22.717,17.015-22.717,41.316h70.546c0-24.301-13.518-38.071-22.717-41.316  c4.491-3.657,7.38-9.195,7.38-15.434c0-7.397-4.077-13.813-10.064-17.255c1.495-2.033,2.396-4.57,2.396-7.286  C176.979,145.017,171.482,139.52,164.71,139.52z"
   inkscape:label="P" />







<g
   id="r"
   transform="translate(348.30177,-945.86548)"
   inkscape:label="r">
	<path
   id="path46311"
   d="m -227.127,1436.207 h 85.549 v -9.705 h -85.549 v 9.096 0.609 z"
   style="fill:none;stroke:#ffffff;stroke-width:10;stroke-linejoin:round" />
	<path
   id="path46313"
   d="m -217.25,1415.526 5.106,-8.088 h 54.831 l 5.106,8.088 h -65.043 z"
   style="fill:none;stroke:#ffffff;stroke-width:5;stroke-linejoin:round" />
	<path
   id="path46315"
   d="m -217.273,1428.467 v -12.94 h 65.519 v 12.94 h -65.519 z"
   style="fill:none;stroke:#ffffff;stroke-width:10;stroke-linejoin:round" />
	<path
   id="path46317"
   d="m -211.429,1407.438 v -42.055 h 53.403 v 42.055 h -53.403 z"
   style="fill:none;stroke:#ffffff;stroke-width:10" />
	<path
   id="path46319"
   d="m -210.537,1367.259 -10.212,-8.087 72.72,-0.179 -10.212,8.087 -52.296,0.179 z"
   style="fill:none;stroke:#ffffff;stroke-width:10;stroke-linejoin:round" />
	<path
   id="path46321"
   d="m -220.749,1357.297 v -14.746 h 13.902 v 6.47 h 14.02 v -6.47 h 18.163 v 6.47 h 12.091 v -6.47 h 14.401 v 14.746 h -72.577 z"
   style="fill:none;stroke:#ffffff;stroke-width:10;stroke-linejoin:round" />
	<path
   id="path46323"
   d="m -225.792,1436.134 h 82.815 v -9.203 h -82.815 v 9.203 z"
   style="stroke:#000000;stroke-width:1.5;stroke-linejoin:round" />
	<path
   id="path46325"
   d="m -215.057,1414.66 4.601,-7.669 h 52.143 l 4.601,7.669 h -61.345 z"
   style="stroke:#000000;stroke-width:1.5;stroke-linejoin:round" />
	<path
   id="path46327"
   d="m -216.59,1426.931 v -12.271 h 64.412 v 12.271 h -64.412 z"
   style="stroke:#000000;stroke-width:1.5;stroke-linejoin:round" />
	<path
   id="path46329"
   d="m -210.456,1406.991 v -39.878 h 52.143 v 39.878 h -52.143 z"
   style="stroke:#000000;stroke-width:1.5" />
	<path
   id="path46331"
   d="m -210.456,1367.113 -9.202,-7.669 h 70.546 l -9.202,7.669 h -52.142 z"
   style="stroke:#000000;stroke-width:1.5;stroke-linejoin:round" />
	<path
   id="path46333"
   d="m -219.658,1359.444 v -15.338 h 12.269 v 6.136 h 15.336 v -6.136 h 15.336 v 6.136 h 15.336 v -6.136 h 12.269 v 15.338 h -70.546 z"
   style="stroke:#000000;stroke-width:1.5;stroke-linejoin:round" />
	<path
   id="path46335"
   d="m -216.59,1423.969 h 64.412 l 0,0"
   style="fill:none;stroke:#ffffff;stroke-width:4;stroke-linecap:round" />
	<path
   id="path46337"
   d="m -213.523,1412.056 h 58.277"
   style="fill:none;stroke:#ffffff;stroke-width:4;stroke-linecap:round" />
	<path
   id="path46339"
   d="m -210.456,1406.991 h 52.143"
   style="fill:none;stroke:#ffffff;stroke-linecap:round" />
	<path
   id="path46341"
   d="m -210.456,1367.113 h 52.143"
   style="fill:none;stroke:#ffffff;stroke-linecap:round" />
	<path
   id="path46343"
   d="m -219.658,1359.444 h 70.546"
   style="fill:none;stroke:#ffffff;stroke-width:4;stroke-linecap:round" />
</g>

<g
   id="N"
   transform="translate(-80.987583,-1809.837)"
   inkscape:label="N">
	<path
   id="path60675"
   d="M395.847,1836.292c37.532,4.161,54.642,26.149,53.008,94.791h-75.886   c-0.893-36.918,30.719-21.425,24.183-68.82" />
	<path
   id="path60677"
   d="M405.985,1863.176c1.371,9.71-16.585,24.578-25.311,30.02c-10.697,6.671-10.052,14.486-17.828,13.342   c-4.119-5.333,0.434-5.904-3.566-3.335c-3.565,0-14.274,3.335-14.262-13.342c0-6.671,18.894-40.026,18.894-40.026   s5.296-6.345,5.703-11.674c-2.589-3.317-1.068-6.671-1.068-10.007c3.565-3.335,12.661,8.339,12.661,8.339h4.274   c0,0,3.681-6.644,9.808-10.006c3.565,0,3.565,10.006,3.565,10.006" />
	<path
   id="path60679"
   fill="#F2F2F2"
   d="M354.993,1886.956c0,0.902-0.731,1.634-1.634,1.634c-0.902,0-1.634-0.732-1.634-1.634   c0-0.903,0.732-1.634,1.634-1.634C354.262,1885.321,354.993,1886.053,354.993,1886.956z" />
	<path
   id="path60681"
   fill="#F2F2F2"
   d="M372.75,1855.086c-1.354,2.345-3.085,3.88-3.867,3.429   c-0.781-0.452-0.317-2.718,1.036-5.063c1.354-2.345,3.085-3.88,3.867-3.429C374.568,1850.474,374.104,1852.741,372.75,1855.086z" />
	<path
   id="path60683"
   d="M404.182,1837.599l-0.98,3.596l1.797,0.327c10.137,1.56,20.668,7.303,28.026,21.226   c7.358,13.923,9.55,35.834,7.926,68.335l-0.164,0.027h5.72v-0.027c1.644-32.873-2.864-55.088-10.622-69.766   s-18.92-21.682-30.027-23.392L404.182,1837.599z" />
	<path
   id="path60685"
   fill="#FFFFFF"
   stroke="#000000"
   stroke-linecap="round"
   d="M396.952,1839.188   c32.206,3.068,50.609,24.541,49.075,88.959h-70.546c0-27.608,30.672-19.939,24.538-64.419" />
	<path
   id="path60687"
   fill="#FFFFFF"
   stroke="#000000"
   stroke-linecap="round"
   stroke-linejoin="round"
   d="M403.086,1863.729   c1.18,8.931-17.032,22.604-24.538,27.608c-9.202,6.135-8.647,13.322-15.336,12.271c-3.195-2.896,4.335-9.318,0-9.203   c-3.067,0,0.575,3.778-3.067,6.135c-3.067,0-12.278,3.067-12.269-12.271c0-6.135,18.403-36.811,18.403-36.811   s5.784-5.835,6.134-10.736c-2.227-3.051-1.534-6.135-1.534-9.203c3.067-3.067,9.202,7.669,9.202,7.669h6.135   c0,0,2.397-6.11,7.668-9.203c3.067,0,3.067,9.203,3.067,9.203" />
	<path
   id="path60689"
   stroke="#000000"
   stroke-width="0.326"
   stroke-linecap="round"
   stroke-linejoin="round"
   d="M358.611,1886.735   c0,0.847-0.687,1.534-1.533,1.534c-0.847,0-1.534-0.687-1.534-1.534s0.687-1.534,1.534-1.534   C357.925,1885.202,358.611,1885.888,358.611,1886.735z" />
	<path
   id="path60691"
   stroke="#000000"
   stroke-width="0.326"
   stroke-linecap="round"
   stroke-linejoin="round"
   d="M375.276,1856.827   c-1.271,2.201-2.895,3.642-3.628,3.218c-0.734-0.423-0.298-2.551,0.972-4.751s2.895-3.642,3.628-3.218   C376.982,1852.499,376.547,1854.626,375.276,1856.827z" />
	<path
   id="path60693"
   d="M403.845,1840.415l-0.92,3.375l1.687,0.307c9.513,1.464,19.396,6.854,26.302,19.92   s9.892,32.666,8.366,63.167l-0.153,1.534h5.368v-1.534c1.542-30.85-3.617-50.734-10.897-64.509   c-7.28-13.775-17.756-20.349-28.18-21.952L403.845,1840.415z" />
</g>


<g
   id="n"
   transform="translate(81.893217,-1436.9714)"
   inkscape:label="n">
	<path
   id="path60730"
   d="m 231.715,1837.495 c 37.531,4.161 54.641,26.148 53.007,94.791 h -75.885 c -0.893,-36.918 30.718,-21.425 24.182,-68.82"
   style="fill:#ffffff" />
	<path
   id="path60732"
   d="m 241.852,1864.379 c 1.371,9.711 -16.585,24.578 -25.311,30.02 -10.697,6.671 -10.052,14.486 -17.828,13.342 -4.119,-5.332 0.434,-5.903 -3.565,-3.335 -3.566,0 -14.274,3.335 -14.263,-13.343 0,-6.671 18.894,-40.025 18.894,-40.025 0,0 5.295,-6.346 5.703,-11.675 -2.589,-3.317 -1.069,-6.671 -1.069,-10.007 3.566,-3.335 12.662,8.339 12.662,8.339 h 4.273 c 0,0 3.681,-6.644 9.808,-10.007 3.565,0 3.565,10.007 3.565,10.007"
   style="fill:#ffffff" />
	<path
   id="path60734"
   d="m 190.861,1888.159 c 0,0.902 -0.732,1.634 -1.634,1.634 -0.903,0 -1.634,-0.731 -1.634,-1.634 0,-0.903 0.731,-1.635 1.634,-1.635 0.902,0 1.634,0.732 1.634,1.635 z"
   style="fill:#f2f2f2" />
	<path
   id="path60736"
   d="m 208.617,1856.289 c -1.354,2.345 -3.084,3.88 -3.866,3.429 -0.782,-0.451 -0.318,-2.719 1.036,-5.063 1.354,-2.345 3.084,-3.881 3.866,-3.429 0.782,0.451 0.318,2.718 -1.036,5.063 z"
   style="fill:#f2f2f2" />
	<path
   id="path60738"
   d="m 240.049,1838.801 -0.98,3.596 1.798,0.327 c 10.136,1.56 20.667,7.303 28.025,21.226 7.358,13.924 9.551,35.835 7.926,68.336 l -0.164,0.027 h 5.72 v -0.027 c 1.644,-32.873 -2.864,-55.088 -10.622,-69.766 -7.757,-14.678 -18.92,-21.683 -30.027,-23.392 l -1.676,-0.327 z"
   style="fill:#ffffff" />
	<path
   id="path60740"
   d="m 232.819,1840.391 c 32.206,3.067 50.609,24.541 49.076,88.959 h -70.547 c 0,-27.607 30.673,-19.939 24.538,-64.418"
   style="stroke:#000000;stroke-linecap:round" />
	<path
   id="path60742"
   d="m 238.954,1864.932 c 1.179,8.93 -17.032,22.604 -24.538,27.607 -9.202,6.135 -8.647,13.322 -15.336,12.271 -3.195,-2.896 4.335,-9.318 0,-9.203 -3.067,0 0.574,3.778 -3.067,6.136 -3.067,0 -12.279,3.067 -12.269,-12.271 0,-6.135 18.403,-36.811 18.403,-36.811 0,0 5.785,-5.835 6.135,-10.736 -2.227,-3.051 -1.534,-6.136 -1.534,-9.203 3.067,-3.067 9.201,7.669 9.201,7.669 h 6.135 c 0,0 2.398,-6.11 7.668,-9.203 3.067,0 3.067,9.203 3.067,9.203"
   style="stroke:#000000;stroke-linecap:round;stroke-linejoin:round" />
	<path
   id="path60744"
   d="m 194.479,1887.938 c 0,0.848 -0.687,1.534 -1.534,1.534 -0.847,0 -1.534,-0.687 -1.534,-1.534 0,-0.847 0.687,-1.533 1.534,-1.533 0.847,0 1.534,0.686 1.534,1.533 z"
   style="fill:#ffffff;stroke:#ffffff;stroke-width:0.32600001;stroke-linecap:round;stroke-linejoin:round" />
	<path
   id="path60746"
   d="m 211.143,1858.03 c -1.271,2.201 -2.896,3.642 -3.629,3.218 -0.733,-0.424 -0.298,-2.551 0.972,-4.752 1.271,-2.2 2.896,-3.642 3.629,-3.218 0.733,0.424 0.299,2.55 -0.972,4.752 z"
   style="fill:#ffffff;stroke:#ffffff;stroke-width:0.32600001;stroke-linecap:round;stroke-linejoin:round" />
	<path
   id="path60748"
   d="m 239.712,1841.618 -0.92,3.375 1.688,0.307 c 9.513,1.464 19.396,6.854 26.301,19.92 6.906,13.066 9.892,32.666 8.367,63.167 l -0.153,1.533 h 5.367 v -1.533 c 1.542,-30.851 -3.617,-50.734 -10.897,-64.509 -7.279,-13.775 -17.756,-20.349 -28.18,-21.952 l -1.573,-0.308 z"
   style="fill:#ffffff" />
</g>
<g
   id="b"
   transform="translate(568.17698,320.47923)"
   inkscape:label="b">
	<g
   id="g60798"
   transform="matrix(3.4156897,0,0,3.3289941,-1005.3432,-2662.945)">
		<path
   id="path60800"
   d="m 250.786,848.362 c 2.471,-1.234 10.115,0.128 13.5,-2.303 3.385,2.431 11.125,0.964 13.352,2.303 2.202,1.325 1.942,0.903 2.556,2.589 -0.677,0.972 -1.054,1.593 -2.408,1.107 -3.385,-0.972 -10.115,0.458 -13.5,-1 -3.385,1.458 -10.115,0.028 -13.5,1 -1.354,0.486 -1.731,-0.21 -2.408,-1.183 1.353,-1.945 0.057,-1.34 2.408,-2.513 z"
   style="fill:#ffffff;stroke:#ffffff;stroke-width:0.44479999;stroke-linejoin:round" />
		<path
   id="path60802"
   d="m 256.786,845.557 c 2.5,2.5 12.5,2.5 15,0 0.5,-1.5 0,-2 0,-2 0,-2.5 -2.063,-4 -2.063,-4 5.5,-1.5 5.563,-11.5 -5.438,-15.5 -11,4 -10.722,14.152 -5.222,15.652 0,0 -2.352,0.969 -2.352,3.469 10e-4,0 -0.425,0.879 0.075,2.379 z"
   style="fill:#ffffff;stroke:#ffffff;stroke-width:0.44479999;stroke-linejoin:round" />
		<path
   id="path60804"
   d="m 267.311,822.842 c 0,1.636 -1.402,2.962 -3.132,2.962 -1.73,0 -3.132,-1.326 -3.132,-2.962 0,-1.636 1.402,-2.962 3.132,-2.962 1.729,0 3.132,1.326 3.132,2.962 z"
   style="fill:#ffffff;stroke:#ffffff;stroke-width:0.3651;stroke-linejoin:round" />
		<path
   id="path60806"
   d="m 259.286,839.557 h 10"
   style="fill:#ff8bff;stroke:#ff78ff;stroke-width:0.44479999;stroke-linecap:round" />
		<path
   id="path60810"
   d="m 264.286,829.057 v 5"
   style="fill:#ff8bff;stroke:#ff78ff;stroke-width:0.44479999;stroke-linecap:round" />
		<path
   id="path60812"
   d="m 261.786,831.557 h 5"
   style="fill:#ff8bff;stroke:#ff78ff;stroke-width:0.44479999;stroke-linecap:round" />
	</g>
	<g
   id="g60782"
   transform="matrix(3.067229,0,0,3.067558,-913.48194,-2443.602)">
		<path
   id="path60784"
   d="m 250.786,849.557 c 3.385,-0.973 10.114,0.431 13.5,-2 3.385,2.431 10.115,1.028 13.5,2 0,0 1.646,0.542 3,2 -0.677,0.972 -1.646,0.986 -3,0.5 -3.385,-0.973 -10.115,0.458 -13.5,-1 -3.385,1.459 -10.115,0.028 -13.5,1 -1.354,0.486 -2.323,0.472 -3,-0.5 1.354,-1.945 3,-2 3,-2 z"
   style="stroke:#000000;stroke-width:0.48899999;stroke-linejoin:round" />
		<path
   id="path60786"
   d="m 256.786,845.557 c 2.5,2.5 12.5,2.5 15,0 0.5,-1.5 0,-2 0,-2 0,-2.5 -2.5,-4 -2.5,-4 5.5,-1.5 6,-11.5 -5,-15.5 -11,4 -10.5,14 -5,15.5 0,0 -2.5,1.5 -2.5,4 0,0 -0.5,0.5 0,2 z"
   style="stroke:#000000;stroke-width:0.48899999;stroke-linejoin:round" />
		<path
   id="path60788"
   d="m 266.786,821.557 c 0,1.381 -1.119,2.5 -2.5,2.5 -1.381,0 -2.5,-1.119 -2.5,-2.5 0,-1.381 1.119,-2.5 2.5,-2.5 1.38,0 2.5,1.119 2.5,2.5 z"
   style="stroke:#000000;stroke-width:0.48899999;stroke-linejoin:round" />
		<path
   id="path60790"
   d="m 259.286,839.557 h 10"
   style="fill:none;stroke:#ffffff;stroke-width:0.48899999;stroke-linecap:round" />
		<path
   id="path60792"
   d="m 256.786,843.557 h 15"
   style="fill:none;stroke:#ffffff;stroke-width:0.48899999;stroke-linecap:round" />
		<path
   id="path60794"
   d="m 264.286,829.057 v 5"
   style="fill:none;stroke:#ffffff;stroke-width:0.48899999;stroke-linecap:round" />
		<path
   id="path60796"
   d="m 261.786,831.557 h 5"
   style="fill:none;stroke:#ffffff;stroke-width:0.48899999;stroke-linecap:round" />
	</g>
</g>

<g
   id="q"
   transform="translate(-785.57042,76.029532)"
   inkscape:label="q">
	<path
   id="path67025"
   d="m 1520.337,330.894 c 0,4.852 -3.932,8.784 -8.782,8.784 -4.85,0 -8.783,-3.933 -8.783,-8.784 0,-4.851 3.933,-8.784 8.783,-8.784 4.85,0 8.782,3.932 8.782,8.784 z"
   style="fill:#ffffff;stroke:#ffffff;stroke-width:0.2277;stroke-linecap:round;stroke-linejoin:round" />
	<path
   id="path67027"
   d="m 1545.162,319.879 c 0,4.852 -3.932,8.784 -8.782,8.784 -4.85,0 -8.783,-3.933 -8.783,-8.784 0,-4.851 3.933,-8.784 8.783,-8.784 4.85,0 8.782,3.934 8.782,8.784 z"
   style="fill:#ffffff;stroke:#ffffff;stroke-width:0.2277;stroke-linecap:round;stroke-linejoin:round" />
	<path
   id="path67029"
   d="m 1571.173,317.102 c 0,4.851 -3.932,8.783 -8.783,8.783 -4.851,0 -8.782,-3.933 -8.782,-8.783 0,-4.852 3.932,-8.784 8.782,-8.784 4.852,0 8.783,3.932 8.783,8.784 z"
   style="fill:#ffffff;stroke:#ffffff;stroke-width:0.2277;stroke-linecap:round;stroke-linejoin:round" />
	<path
   id="path67031"
   d="m 1597.437,322.152 c 0,4.852 -3.932,8.784 -8.782,8.784 -4.85,0 -8.783,-3.933 -8.783,-8.784 0,-4.851 3.933,-8.783 8.783,-8.783 4.85,0 8.782,3.932 8.782,8.783 z"
   style="fill:#ffffff;stroke:#ffffff;stroke-width:0.2277;stroke-linecap:round;stroke-linejoin:round" />
	<path
   id="path67033"
   d="m 1516.711,371.167 c 29.278,-5.168 70.567,-5.168 91.233,0 l 5.627,-44.874 -22.092,32.843 -1.01,-42.42 -18.188,43.476 -10.08,-49.4 -9.829,48.643 -18.187,-43.683 -0.253,46.162 -22.091,-33.6 4.87,42.853 z"
   style="fill:#ffffff;stroke:#ffffff;stroke-width:1;stroke-linejoin:round" />
	<path
   id="path67035"
   d="m 1516.711,371.167 c 0,6.89 4.157,7.647 7.602,14.537 3.444,5.167 4.454,2.688 2.732,11.299 -5.167,3.445 -5.167,8.612 -5.167,8.612 -5.167,5.167 1.723,10.612 1.723,10.612 22.389,3.445 54.813,3.445 77.203,0 0,0 5.166,-5.445 0,-10.612 0,0 1.722,-5.167 -3.445,-8.612 -1.722,-8.611 0.299,-6.89 3.743,-12.057 3.444,-6.89 6.591,-6.89 6.591,-13.779 -29.278,-5.168 -61.703,-5.168 -90.982,0 z"
   style="fill:#ffffff;stroke:#ffffff;stroke-width:1;stroke-linejoin:round" />
	<path
   id="path67037"
   d="m 1621.933,330.739 c 0,4.852 -3.932,8.784 -8.782,8.784 -4.85,0 -8.783,-3.933 -8.783,-8.784 0,-4.851 3.933,-8.784 8.783,-8.784 4.85,0 8.782,3.933 8.782,8.784 z"
   style="fill:#ffffff;stroke:#ffffff;stroke-width:0.2277;stroke-linecap:round;stroke-linejoin:round" />
	<g
   id="g67039"
   transform="matrix(3.067229,0,0,3.067558,-1332.787,-2735.3764)">
		<path
   id="path67041"
   d="m 929.437,999.625 c 0,1.105 -0.895,2 -2,2 -1.104,0 -2,-0.895 -2,-2 0,-1.105 0.895,-2 2,-2 1.105,0 2,0.895 2,2 z"
   style="stroke:#000000;stroke-width:0.32600001;stroke-linecap:round;stroke-linejoin:round" />
		<path
   id="path67043"
   d="m 945.937,995.125 c 0,1.104 -0.895,2 -2,2 -1.104,0 -2,-0.896 -2,-2 0,-1.105 0.895,-2 2,-2 1.105,0 2,0.896 2,2 z"
   style="stroke:#000000;stroke-width:0.32600001;stroke-linecap:round;stroke-linejoin:round" />
		<path
   id="path67045"
   d="m 962.437,999.625 c 0,1.105 -0.896,2 -2,2 -1.104,0 -2,-0.895 -2,-2 0,-1.105 0.895,-2 2,-2 1.105,0 2,0.895 2,2 z"
   style="stroke:#000000;stroke-width:0.32600001;stroke-linecap:round;stroke-linejoin:round" />
		<path
   id="path67047"
   d="m 937.437,996.125 c 0,1.104 -0.896,2 -2,2 -1.104,0 -2,-0.896 -2,-2 0,-1.105 0.896,-2 2,-2 1.105,0 2,0.895 2,2 z"
   style="stroke:#000000;stroke-width:0.32600001;stroke-linecap:round;stroke-linejoin:round" />
		<path
   id="path67049"
   d="m 954.437,996.625 c 0,1.104 -0.895,2 -2,2 -1.104,0 -2,-0.896 -2,-2 0,-1.105 0.895,-2 2,-2 1.105,0 2,0.896 2,2 z"
   style="stroke:#000000;stroke-width:0.32600001;stroke-linecap:round;stroke-linejoin:round" />
		<path
   id="path67051"
   d="m 930.437,1013.625 c 8.5,-1.5 21,-1.5 27,0 l 2,-12 -7,11 v -14 l -5.5,13.5 -3,-15 -3,15 -5.5,-14 v 14.5 l -7,-11 2,12 z"
   style="stroke:#000000;stroke-width:0.32600001;stroke-linejoin:round" />
		<path
   id="path67053"
   d="m 930.437,1013.625 c 0,2 1.5,2 2.5,4 1,1.5 1,1 0.5,3.5 -1.5,1 -1.5,2.5 -1.5,2.5 -1.5,1.5 0.5,2.5 0.5,2.5 6.5,1 16.5,1 23,0 0,0 1.5,-1 0,-2.5 0,0 0.5,-1.5 -1,-2.5 -0.5,-2.5 -0.5,-2 0.5,-3.5 1,-2 2.5,-2 2.5,-4 -8.499,-1.5 -18.5,-1.5 -27,0 z"
   style="stroke:#000000;stroke-width:0.32600001;stroke-linejoin:round" />
		<path
   id="path67055"
   d="m 932.937,1017.625 c 3.5,-1 18.5,-1 22,0"
   style="fill:none;stroke:#ffffff;stroke-width:0.32600001;stroke-linecap:round;stroke-linejoin:round" />
		<path
   id="path67057"
   d="m 933.437,1021.125 c 6,-1 15,-1 21,0"
   style="fill:none;stroke:#ffffff;stroke-width:0.32600001;stroke-linecap:round;stroke-linejoin:round" />
		<path
   id="path67059"
   d="m 931.937,1023.625 c 5,-1 18.5,-1 23.5,0"
   style="fill:none;stroke:#ffffff;stroke-width:0.32600001;stroke-linecap:round;stroke-linejoin:round" />
	</g>
</g>
<g
   id="k"
   transform="translate(-684.81165,-39.021568)"
   inkscape:label="k">
	<g
   id="g67079"
   transform="matrix(3.677456,0,0,3.6776632,-684.87287,-2670.1206)">
		<path
   id="path67081"
   d="m 538.536,847.111 v -5.625"
   style="fill:#ffffff;stroke:#ffffff;stroke-width:1.63150001;stroke-linecap:round" />
		<path
   id="path67083"
   d="m 538.536,858.649 c 0,0 4.775,-7.569 3.275,-10.569 0,0 -1.275,-2.431 -3.275,-2.431 -2,0 -3.275,2.569 -3.275,2.569 -1.499,2.999 3.275,10.431 3.275,10.431"
   style="fill:#ffffff;stroke:#ffffff;stroke-width:0.40790001" />
		<path
   id="path67085"
   d="m 527.88,868.542 c 5.5,3.5 15.157,3.432 20.657,-0.068 l -0.069,-6.313 c 0,0 7.352,-3.607 4.352,-9.607 -4,-6.5 -13.5,-3.5 -16,4 l 1.717,1.92 v -3.5 c -3.637,-6.127 -10.734,-8.44 -14.421,-2.833 -3,6 3.627,10 3.627,10 l 0.137,6.401 z"
   style="fill:#ffffff;stroke:#ffffff;stroke-width:0.40790001;stroke-linecap:round;stroke-linejoin:round" />
		<path
   id="path67087"
   d="m 536.036,843.486 h 5"
   style="fill:#ffffff;stroke:#ffffff;stroke-width:1.63150001;stroke-linecap:round" />
	</g>
	<g
   id="g67061"
   transform="matrix(3.067229,0,0,3.067558,-329.09607,-2142.8556)">
		<path
   id="path67063"
   d="m 529.713,843.098 v -5.625"
   style="fill:none;stroke:#000000;stroke-width:0.48899999;stroke-linecap:round" />
		<path
   id="path67065"
   d="m 529.713,856.473 c 0,0 4.5,-7.5 3,-10.5 0,0 -1,-2.5 -3,-2.5 -2,0 -3,2.5 -3,2.5 -1.5,3 3,10.5 3,10.5"
   style="stroke:#000000;stroke-width:0.48899999" />
		<path
   id="path67067"
   d="m 518.713,868.473 c 5.5,3.5 15.5,3.5 21,0 v -7 c 0,0 9,-4.5 6,-10.5 -4,-6.5 -13.5,-3.5 -16,4 v 3.5 -3.5 c -3.5,-7.5 -13,-10.5 -16,-4 -3,6 5,10 5,10 v 7.5 z"
   style="stroke:#000000;stroke-width:0.48899999;stroke-linecap:round;stroke-linejoin:round" />
		<path
   id="path67069"
   d="m 527.213,839.473 h 5"
   style="fill:none;stroke:#000000;stroke-width:0.48899999;stroke-linecap:round" />
		<path
   id="path67071"
   d="m 518.713,860.973 c 5.5,-2.5 15.5,-2.5 21,0.5"
   style="fill:none;stroke:#ffffff;stroke-width:0.48899999;stroke-linecap:round" />
		<path
   id="path67073"
   d="m 518.713,868.473 c 5.5,-2.5 15.5,-2.5 21,0"
   style="fill:none;stroke:#ffffff;stroke-width:0.48899999;stroke-linecap:round;stroke-linejoin:round" />
		<path
   id="path67075"
   d="m 518.713,864.973 c 5.5,-2 15.5,-2 21,0"
   style="fill:none;stroke:#ffffff;stroke-width:0.48899999;stroke-linecap:round;stroke-linejoin:round" />
		<path
   id="path67077"
   d="m 539.213,860.973 c 0,0 8.5,-4 6.026,-9.654 -3.879,-5.85 -13.026,-1.846 -15.526,4.654 l 0.012,2.097 -0.012,-2.097 c -2.5,-6.5 -12.593,-10.503 -15.503,-4.654 -2.497,5.654 4.848,9 4.848,9"
   style="fill:none;stroke:#ffffff;stroke-width:0.48899999;stroke-linecap:round;stroke-linejoin:round" />
	</g>
</g>
<g
   id="Q"
   transform="translate(-56.553323,-1775.3189)"
   inkscape:label="Q">
	<path
   id="path80248"
   fill="#FFFFFF"
   stroke="#FFFFFF"
   stroke-width="1"
   stroke-linejoin="round"
   d="M788.638,1850.392   c29.278-5.167,72.082-3.021,92.749,2.146c0,0,10.279-44.535,6.384-50.369c-3.895-5.833-21.965,27.034-21.965,27.034l-3.409-42.419   l-16.167,39.813c0,0-5.766-35.353-11.217-35.131c-5.451,0.221-10.586,36.016-10.586,36.016s-8.621-33.791-15.662-33.455   c-7.167,0.336-4.419,35.809-4.419,35.809s-16.775-31.037-20.702-25.898S788.638,1850.392,788.638,1850.392z" />
	<path
   id="path80250"
   fill="#FFFFFF"
   stroke="#FFFFFF"
   stroke-width="1"
   stroke-linejoin="round"
   d="M787.502,1845.211   c0,7.295,1.277,11.128,7.329,17.287c1.759,2.693,4.383,3.224,2.24,8.555c-5.669,3.647-5.795,11.139-5.795,11.139   c-1.754,5.219,2.016,11.11,2.016,11.11c24.564,3.647,56.48,3.66,82.179,0.379c0,0,3.396-4.502,2.146-9.974   c0,0,0.248-8.375-4.158-12.149c-1.006-6.72,1.085-6.411,3.728-10.114c4.031-6.159,5.337-7.295,5.337-14.59   C850.401,1841.382,819.624,1839.74,787.502,1845.211z" />
	<path
   id="path80252"
   fill="#FFFFFF"
   stroke="#FFFFFF"
   stroke-width="0.1896"
   stroke-linecap="round"
   stroke-linejoin="round"
   d="   M896.259,1806.807c0,5.827-4.724,10.551-10.551,10.551c-5.826,0-10.55-4.724-10.55-10.551c0-5.828,4.724-10.552,10.55-10.552   C891.535,1796.255,896.259,1800.979,896.259,1806.807z" />
	<path
   id="path80254"
   fill="#FFFFFF"
   stroke="#FFFFFF"
   stroke-width="0.1896"
   stroke-linecap="round"
   stroke-linejoin="round"
   d="   M794.953,1806.698c0,5.828-4.724,10.552-10.55,10.552c-5.827,0-10.551-4.724-10.551-10.552s4.724-10.551,10.551-10.551   C790.23,1796.146,794.953,1800.87,794.953,1806.698z" />
	<path
   id="path80256"
   fill="#FFFFFF"
   stroke="#000000"
   stroke-width="1.63"
   stroke-linecap="round"
   stroke-linejoin="round"
   d="   M790.694,1806.868c0,3.388-2.746,6.135-6.135,6.135c-3.388,0-6.134-2.747-6.134-6.135c0-3.389,2.746-6.135,6.134-6.135   C787.948,1800.733,790.694,1803.48,790.694,1806.868z" />
	<path
   id="path80258"
   fill="#FFFFFF"
   stroke="#FFFFFF"
   stroke-width="0.1896"
   stroke-linecap="round"
   stroke-linejoin="round"
   d="   M845.587,1792.808c0,5.828-4.723,10.552-10.55,10.552s-10.551-4.724-10.551-10.552s4.724-10.551,10.551-10.551   S845.587,1786.98,845.587,1792.808z" />
	<path
   id="path80260"
   fill="#FFFFFF"
   stroke="#000000"
   stroke-width="1.63"
   stroke-linecap="round"
   stroke-linejoin="round"
   d="   M841.304,1793.064c0,3.388-2.747,6.135-6.135,6.135s-6.135-2.747-6.135-6.135s2.747-6.135,6.135-6.135   S841.304,1789.676,841.304,1793.064z" />
	<path
   id="path80262"
   fill="#FFFFFF"
   stroke="#000000"
   stroke-width="1.63"
   stroke-linecap="round"
   stroke-linejoin="round"
   d="   M891.913,1806.868c0,3.388-2.747,6.135-6.135,6.135s-6.135-2.747-6.135-6.135c0-3.389,2.747-6.135,6.135-6.135   S891.913,1803.48,891.913,1806.868z" />
	<path
   id="path80264"
   fill="#FFFFFF"
   stroke="#FFFFFF"
   stroke-width="0.1896"
   stroke-linecap="round"
   stroke-linejoin="round"
   d="   M819.576,1796.091c0,5.827-4.724,10.551-10.551,10.551s-10.55-4.724-10.55-10.551c0-5.828,4.723-10.552,10.55-10.552   S819.576,1790.263,819.576,1796.091z" />
	<path
   id="path80266"
   fill="#FFFFFF"
   stroke="#000000"
   stroke-width="1.63"
   stroke-linecap="round"
   stroke-linejoin="round"
   d="   M815.233,1796.132c0,3.389-2.747,6.135-6.135,6.135s-6.135-2.747-6.135-6.135c0-3.388,2.747-6.135,6.135-6.135   S815.233,1792.743,815.233,1796.132z" />
	<path
   id="path80268"
   fill="#FFFFFF"
   stroke="#FFFFFF"
   stroke-width="0.1896"
   stroke-linecap="round"
   stroke-linejoin="round"
   d="   M871.852,1797.606c0,5.827-4.724,10.551-10.551,10.551s-10.55-4.724-10.55-10.551c0-5.828,4.723-10.552,10.55-10.552   S871.852,1791.779,871.852,1797.606z" />
	<path
   id="path80270"
   fill="#FFFFFF"
   stroke="#000000"
   stroke-width="1.63"
   stroke-linecap="round"
   stroke-linejoin="round"
   d="   M867.375,1797.665c0,3.389-2.746,6.135-6.135,6.135c-3.388,0-6.134-2.747-6.134-6.135c0-3.388,2.746-6.135,6.134-6.135   C864.629,1791.531,867.375,1794.277,867.375,1797.665z" />
	<path
   id="path80272"
   fill="#FFFFFF"
   stroke="#000000"
   stroke-width="5"
   stroke-linejoin="round"
   d="M793.762,1849.814   c26.071-4.602,64.411-4.602,82.815,0l6.134-36.811l-21.471,33.743v-42.946l-16.869,41.412l-9.202-46.013l-9.201,46.013   l-16.87-42.946v44.479l-21.471-33.743L793.762,1849.814z" />
	<path
   id="path80274"
   fill="#FFFFFF"
   stroke="#000000"
   stroke-width="5"
   stroke-linejoin="round"
   d="M793.762,1849.814   c0,6.135,4.601,6.135,7.668,12.27c3.067,4.601,3.067,3.068,1.533,10.737c-4.601,3.067-4.601,7.668-4.601,7.668   c-4.601,4.602,1.533,7.669,1.533,7.669c19.938,3.068,50.609,3.068,70.547,0c0,0,4.601-3.067,0-7.669c0,0,1.533-4.601-3.067-7.668   c-1.533-7.669-1.533-6.136,1.533-10.737c3.067-6.135,7.669-6.135,7.669-12.27C850.505,1845.213,819.833,1845.213,793.762,1849.814z   " />
	<path
   id="path80276"
   fill="none"
   stroke="#000000"
   stroke-width="5"
   stroke-linecap="round"
   stroke-linejoin="round"
   d="   M801.43,1862.084c10.735-3.067,56.743-3.067,67.479,0" />
	<path
   id="path80278"
   fill="none"
   stroke="#000000"
   stroke-width="5"
   stroke-linecap="round"
   stroke-linejoin="round"
   d="   M802.963,1872.821c18.403-3.068,46.009-3.068,64.412,0" />
	<path
   id="path80280"
   fill="none"
   stroke="#000000"
   stroke-width="5"
   stroke-linecap="round"
   stroke-linejoin="round"
   d="   M798.362,1880.49c15.336-3.067,56.744-3.067,72.08,0" />
</g>
<g
   id="K"
   transform="translate(151.63553,-1758.0705)"
   inkscape:label="K">
	<path
   id="path80321"
   fill="none"
   stroke="#FFFFFF"
   stroke-width="8"
   stroke-linecap="round"
   d="M469.064,1790.063v-16.385" />
	<path
   id="path80323"
   fill="none"
   stroke="#FFFFFF"
   stroke-width="8"
   stroke-linecap="round"
   d="M461.27,1779.681h15.336" />
	<path
   id="path80300"
   fill="none"
   stroke="#000000"
   stroke-width="5"
   stroke-linecap="round"
   d="M469.217,1790.951v-17.255" />
	<path
   id="path80302"
   fill="#FFFFFF"
   stroke="#000000"
   stroke-width="5"
   d="M469.217,1831.98c0,0,13.803-23.007,9.202-32.209   c0,0-3.067-7.669-9.202-7.669c-6.134,0-9.201,7.669-9.201,7.669C455.416,1808.973,469.217,1831.98,469.217,1831.98" />
	<path
   id="path80304"
   fill="#FFFFFF"
   stroke="#000000"
   stroke-width="5"
   stroke-linecap="round"
   stroke-linejoin="round"
   d="   M435.478,1868.791c16.87,10.736,47.542,10.736,64.412,0v-21.473c0,0,27.605-13.804,18.403-32.209   c-12.269-19.939-41.407-10.736-49.076,12.27v10.736v-10.736c-10.735-23.006-39.874-32.209-49.075-12.27   c-9.202,18.405,15.336,30.675,15.336,30.675V1868.791z" />
	<path
   id="path80306"
   fill="none"
   stroke="#000000"
   stroke-width="5"
   stroke-linecap="round"
   d="M461.55,1779.832h15.337" />
	<path
   id="path80308"
   fill="none"
   stroke="#000000"
   stroke-width="5"
   stroke-linecap="round"
   d="M435.478,1845.784   c16.87-7.669,47.542-7.669,64.412,1.534" />
	<path
   id="path80310"
   fill="none"
   stroke="#000000"
   stroke-width="5"
   stroke-linecap="round"
   stroke-linejoin="round"
   d="   M435.478,1868.791c16.87-7.669,47.542-7.669,64.412,0" />
	<path
   id="path80312"
   fill="none"
   stroke="#000000"
   stroke-width="5"
   stroke-linecap="round"
   stroke-linejoin="round"
   d="   M435.478,1858.054c16.87-6.135,47.542-6.135,64.412,0" />
</g>
</svg>