<?xml version="1.0" encoding="UTF-8" standalone="no"?>
<!-- Created with Inkscape (http://www.inkscape.org/) -->

<svg
   xmlns:dc="http://purl.org/dc/elements/1.1/"
   xmlns:cc="http://creativecommons.org/ns#"
   xmlns:rdf="http://www.w3.org/1999/02/22-rdf-syntax-ns#"
   xmlns:svg="http://www.w3.org/2000/svg"
   xmlns="http://www.w3.org/2000/svg"
   xmlns:sodipodi="http://sodipodi.sourceforge.net/DTD/sodipodi-0.dtd"
   xmlns:inkscape="http://www.inkscape.org/namespaces/inkscape"
   width="103.9437"
   height="104.623"
   id="svg2981"
   version="1.1"
   inkscape:version="0.47 r22583"
   sodipodi:docname="New document 3">
  <defs
     id="defs2983">
    <inkscape:perspective
       sodipodi:type="inkscape:persp3d"
       inkscape:vp_x="0 : 526.18109 : 1"
       inkscape:vp_y="0 : 1000 : 0"
       inkscape:vp_z="744.09448 : 526.18109 : 1"
       inkscape:persp3d-origin="372.04724 : 350.78739 : 1"
       id="perspective2989" />
    <inkscape:perspective
       id="perspective2966"
       inkscape:persp3d-origin="0.5 : 0.33333333 : 1"
       inkscape:vp_z="1 : 0.5 : 1"
       inkscape:vp_y="0 : 1000 : 0"
       inkscape:vp_x="0 : 0.5 : 1"
       sodipodi:type="inkscape:persp3d" />
  </defs>
  <sodipodi:namedview
     id="base"
     pagecolor="#ffffff"
     bordercolor="#666666"
     borderopacity="1.0"
     inkscape:pageopacity="0.0"
     inkscape:pageshadow="2"
     inkscape:zoom="0.35"
     inkscape:cx="335.54328"
     inkscape:cy="-219.39414"
     inkscape:document-units="px"
     inkscape:current-layer="layer1"
     showgrid="false"
     inkscape:window-width="555"
     inkscape:window-height="483"
     inkscape:window-x="0"
     inkscape:window-y="28"
     inkscape:window-maximized="0" />
  <metadata
     id="metadata2986">
    <rdf:RDF>
      <cc:Work
         rdf:about="">
        <dc:format>image/svg+xml</dc:format>
        <dc:type
           rdf:resource="http://purl.org/dc/dcmitype/StillImage" />
        <dc:title></dc:title>
      </cc:Work>
    </rdf:RDF>
  </metadata>
  <g
     inkscape:label="Layer 1"
     inkscape:groupmode="layer"
     id="layer1"
     transform="translate(-39.45672,-17.1935)">
    <g
       id="N"
       transform="translate(-305.56127,-1809.2935)"
       inkscape:label="N">
      <path
         id="path60675"
         d="m 395.847,1836.292 c 37.532,4.161 54.642,26.149 53.008,94.791 h -75.886 c -0.893,-36.918 30.719,-21.425 24.183,-68.82" />
      <path
         id="path60677"
         d="m 405.985,1863.176 c 1.371,9.71 -16.585,24.578 -25.311,30.02 -10.697,6.671 -10.052,14.486 -17.828,13.342 -4.119,-5.333 0.434,-5.904 -3.566,-3.335 -3.565,0 -14.274,3.335 -14.262,-13.342 0,-6.671 18.894,-40.026 18.894,-40.026 0,0 5.296,-6.345 5.703,-11.674 -2.589,-3.317 -1.068,-6.671 -1.068,-10.007 3.565,-3.335 12.661,8.339 12.661,8.339 h 4.274 c 0,0 3.681,-6.644 9.808,-10.006 3.565,0 3.565,10.006 3.565,10.006" />
      <path
         style="fill:#f2f2f2"
         id="path60679"
         d="m 354.993,1886.956 c 0,0.902 -0.731,1.634 -1.634,1.634 -0.902,0 -1.634,-0.732 -1.634,-1.634 0,-0.903 0.732,-1.634 1.634,-1.634 0.903,-10e-4 1.634,0.731 1.634,1.634 z" />
      <path
         style="fill:#f2f2f2"
         id="path60681"
         d="m 372.75,1855.086 c -1.354,2.345 -3.085,3.88 -3.867,3.429 -0.781,-0.452 -0.317,-2.718 1.036,-5.063 1.354,-2.345 3.085,-3.88 3.867,-3.429 0.782,0.451 0.318,2.718 -1.036,5.063 z" />
      <path
         id="path60683"
         d="m 404.182,1837.599 -0.98,3.596 1.797,0.327 c 10.137,1.56 20.668,7.303 28.026,21.226 7.358,13.923 9.55,35.834 7.926,68.335 l -0.164,0.027 h 5.72 v -0.027 c 1.644,-32.873 -2.864,-55.088 -10.622,-69.766 -7.758,-14.678 -18.92,-21.682 -30.027,-23.392 l -1.676,-0.326 z" />
      <path
         style="fill:#ffffff;stroke:#000000;stroke-linecap:round"
         id="path60685"
         d="m 396.952,1839.188 c 32.206,3.068 50.609,24.541 49.075,88.959 h -70.546 c 0,-27.608 30.672,-19.939 24.538,-64.419" />
      <path
         style="fill:#ffffff;stroke:#000000;stroke-linecap:round;stroke-linejoin:round"
         id="path60687"
         d="m 403.086,1863.729 c 1.18,8.931 -17.032,22.604 -24.538,27.608 -9.202,6.135 -8.647,13.322 -15.336,12.271 -3.195,-2.896 4.335,-9.318 0,-9.203 -3.067,0 0.575,3.778 -3.067,6.135 -3.067,0 -12.278,3.067 -12.269,-12.271 0,-6.135 18.403,-36.811 18.403,-36.811 0,0 5.784,-5.835 6.134,-10.736 -2.227,-3.051 -1.534,-6.135 -1.534,-9.203 3.067,-3.067 9.202,7.669 9.202,7.669 h 6.135 c 0,0 2.397,-6.11 7.668,-9.203 3.067,0 3.067,9.203 3.067,9.203" />
      <path
         style="stroke:#000000;stroke-width:0.32600001;stroke-linecap:round;stroke-linejoin:round"
         id="path60689"
         d="m 358.611,1886.735 c 0,0.847 -0.687,1.534 -1.533,1.534 -0.847,0 -1.534,-0.687 -1.534,-1.534 0,-0.847 0.687,-1.534 1.534,-1.534 0.847,10e-4 1.533,0.687 1.533,1.534 z" />
      <path
         style="stroke:#000000;stroke-width:0.32600001;stroke-linecap:round;stroke-linejoin:round"
         id="path60691"
         d="m 375.276,1856.827 c -1.271,2.201 -2.895,3.642 -3.628,3.218 -0.734,-0.423 -0.298,-2.551 0.972,-4.751 1.27,-2.2 2.895,-3.642 3.628,-3.218 0.734,0.423 0.299,2.55 -0.972,4.751 z" />
      <path
         id="path60693"
         d="m 403.845,1840.415 -0.92,3.375 1.687,0.307 c 9.513,1.464 19.396,6.854 26.302,19.92 6.906,13.066 9.892,32.666 8.366,63.167 l -0.153,1.534 h 5.368 v -1.534 c 1.542,-30.85 -3.617,-50.734 -10.897,-64.509 -7.28,-13.775 -17.756,-20.349 -28.18,-21.952 l -1.573,-0.308 z" />
    </g>
  </g>
</svg>
